G75*
%MOIN*%
%OFA0B0*%
%FSLAX25Y25*%
%IPPOS*%
%LPD*%
%AMOC8*
5,1,8,0,0,1.08239X$1,22.5*
%
%ADD10R,0.06693X0.13780*%
%ADD11C,0.04800*%
%ADD12R,0.00900X0.05600*%
%ADD13R,0.04724X0.04724*%
%ADD14R,0.06299X0.05118*%
%ADD15R,0.03642X0.02913*%
%ADD16R,0.06600X0.01800*%
%ADD17R,0.05118X0.06299*%
%ADD18C,0.03600*%
%ADD19C,0.07874*%
%ADD20C,0.04724*%
%ADD21C,0.02969*%
%ADD22C,0.01000*%
%ADD23C,0.01200*%
%ADD24C,0.02400*%
D10*
X0050001Y0055598D03*
X0060799Y0055598D03*
X0071600Y0055599D03*
X0082401Y0055598D03*
X0093199Y0055598D03*
X0175001Y0055598D03*
X0185799Y0055598D03*
X0196600Y0055599D03*
X0207401Y0055598D03*
X0218199Y0055598D03*
X0300001Y0055598D03*
X0310799Y0055598D03*
X0321600Y0055599D03*
X0332401Y0055598D03*
X0343199Y0055598D03*
D11*
X0271600Y0091400D02*
X0271600Y0096200D01*
X0261600Y0096200D02*
X0261600Y0091400D01*
X0251600Y0091400D02*
X0251600Y0096200D01*
X0241600Y0096200D02*
X0241600Y0091400D01*
X0231600Y0091400D02*
X0231600Y0096200D01*
X0221600Y0096200D02*
X0221600Y0091400D01*
X0211600Y0091400D02*
X0211600Y0096200D01*
X0201600Y0096200D02*
X0201600Y0091400D01*
X0191600Y0091400D02*
X0191600Y0096200D01*
X0181600Y0096200D02*
X0181600Y0091400D01*
X0171600Y0091400D02*
X0171600Y0096200D01*
X0161600Y0096200D02*
X0161600Y0091400D01*
X0151600Y0091400D02*
X0151600Y0096200D01*
X0141600Y0096200D02*
X0141600Y0091400D01*
X0121600Y0091400D02*
X0121600Y0096200D01*
X0111600Y0096200D02*
X0111600Y0091400D01*
X0101600Y0091400D02*
X0101600Y0096200D01*
X0091600Y0096200D02*
X0091600Y0091400D01*
X0081600Y0091400D02*
X0081600Y0096200D01*
X0071600Y0096200D02*
X0071600Y0091400D01*
X0061600Y0091400D02*
X0061600Y0096200D01*
X0051600Y0096200D02*
X0051600Y0091400D01*
X0051600Y0121400D02*
X0051600Y0126200D01*
X0061600Y0126200D02*
X0061600Y0121400D01*
X0071600Y0121400D02*
X0071600Y0126200D01*
X0081600Y0126200D02*
X0081600Y0121400D01*
X0091600Y0121400D02*
X0091600Y0126200D01*
X0101600Y0126200D02*
X0101600Y0121400D01*
X0111600Y0121400D02*
X0111600Y0126200D01*
X0121600Y0126200D02*
X0121600Y0121400D01*
X0141600Y0121400D02*
X0141600Y0126200D01*
X0151600Y0126200D02*
X0151600Y0121400D01*
X0161600Y0121400D02*
X0161600Y0126200D01*
X0171600Y0126200D02*
X0171600Y0121400D01*
X0181600Y0121400D02*
X0181600Y0126200D01*
X0191600Y0126200D02*
X0191600Y0121400D01*
X0201600Y0121400D02*
X0201600Y0126200D01*
X0211600Y0126200D02*
X0211600Y0121400D01*
X0221600Y0121400D02*
X0221600Y0126200D01*
X0231600Y0126200D02*
X0231600Y0121400D01*
X0241600Y0121400D02*
X0241600Y0126200D01*
X0251600Y0126200D02*
X0251600Y0121400D01*
X0261600Y0121400D02*
X0261600Y0126200D01*
X0271600Y0126200D02*
X0271600Y0121400D01*
D12*
X0332600Y0117350D03*
X0334600Y0117350D03*
X0336600Y0117350D03*
X0338600Y0117350D03*
X0340600Y0117350D03*
X0340600Y0100250D03*
X0338600Y0100250D03*
X0336600Y0100250D03*
X0334600Y0100250D03*
X0332600Y0100250D03*
D13*
X0245734Y0068800D03*
X0237466Y0068800D03*
X0237466Y0058800D03*
X0245734Y0058800D03*
X0115734Y0058800D03*
X0107466Y0058800D03*
X0107466Y0068800D03*
X0115734Y0068800D03*
D14*
X0141600Y0067540D03*
X0156600Y0067540D03*
X0156600Y0060060D03*
X0141600Y0060060D03*
X0271600Y0060060D03*
X0286600Y0060060D03*
X0286600Y0067540D03*
X0271600Y0067540D03*
X0271600Y0105060D03*
X0271600Y0112540D03*
D15*
X0319238Y0118800D03*
X0323962Y0118800D03*
X0211462Y0113800D03*
X0206738Y0113800D03*
X0178962Y0073800D03*
X0174238Y0073800D03*
X0056462Y0073800D03*
X0051738Y0073800D03*
D16*
X0302800Y0089961D03*
X0302800Y0092520D03*
X0302800Y0095080D03*
X0302800Y0097639D03*
X0320400Y0097639D03*
X0320400Y0095080D03*
X0320400Y0092520D03*
X0320400Y0089961D03*
D17*
X0290340Y0098800D03*
X0282860Y0098800D03*
X0305360Y0106300D03*
X0312840Y0106300D03*
X0210340Y0078800D03*
X0202860Y0078800D03*
X0100340Y0078800D03*
X0092860Y0078800D03*
D18*
X0066600Y0076300D03*
X0056600Y0066300D03*
X0056600Y0086300D03*
X0181600Y0086300D03*
X0191600Y0076300D03*
X0208100Y0070400D03*
X0216200Y0079400D03*
X0181600Y0066300D03*
X0278300Y0070400D03*
X0237800Y0101000D03*
D19*
X0387269Y0110020D02*
X0387269Y0117894D01*
X0412072Y0117894D02*
X0412072Y0110020D01*
X0403017Y0133643D02*
X0395143Y0133643D01*
D20*
X0419986Y0100375D02*
X0424710Y0100375D01*
X0386718Y0090139D02*
X0386718Y0085414D01*
X0396167Y0084627D02*
X0396167Y0079902D01*
X0424513Y0072422D02*
X0424513Y0067698D01*
X0408962Y0057068D02*
X0404238Y0057068D01*
D21*
X0341600Y0078800D03*
X0333100Y0091300D03*
X0326600Y0091300D03*
X0276600Y0078800D03*
X0271600Y0073800D03*
X0286600Y0073800D03*
X0296600Y0073800D03*
X0291600Y0053800D03*
X0236600Y0063800D03*
X0216600Y0073800D03*
X0196600Y0073800D03*
X0156600Y0073800D03*
X0141600Y0073800D03*
X0106600Y0063800D03*
X0082401Y0068800D03*
X0166600Y0053800D03*
X0326600Y0113800D03*
X0316600Y0118800D03*
X0316600Y0123800D03*
X0331600Y0128800D03*
X0346600Y0118800D03*
D22*
X0043600Y0108800D02*
X0043600Y0053800D01*
X0045554Y0053800D01*
X0045554Y0062944D01*
X0046199Y0063588D01*
X0050138Y0063588D01*
X0050138Y0071243D01*
X0049461Y0071243D01*
X0048817Y0071888D01*
X0048817Y0075712D01*
X0049461Y0076357D01*
X0054014Y0076357D01*
X0054100Y0076271D01*
X0054186Y0076357D01*
X0058739Y0076357D01*
X0059383Y0075712D01*
X0059383Y0071888D01*
X0058739Y0071243D01*
X0058200Y0071243D01*
X0058200Y0068776D01*
X0058243Y0068758D01*
X0059058Y0067943D01*
X0059500Y0066877D01*
X0059500Y0065723D01*
X0059058Y0064657D01*
X0058243Y0063841D01*
X0057631Y0063588D01*
X0064601Y0063588D01*
X0065246Y0062944D01*
X0065246Y0053800D01*
X0067154Y0053800D01*
X0067154Y0062945D01*
X0067798Y0063589D01*
X0075402Y0063589D01*
X0076046Y0062945D01*
X0076046Y0053800D01*
X0077954Y0053800D01*
X0077954Y0062944D01*
X0078599Y0063588D01*
X0080701Y0063588D01*
X0080701Y0066845D01*
X0080210Y0067336D01*
X0079817Y0068286D01*
X0079817Y0069314D01*
X0080210Y0070264D01*
X0080937Y0070991D01*
X0081887Y0071384D01*
X0082915Y0071384D01*
X0083865Y0070991D01*
X0084592Y0070264D01*
X0084985Y0069314D01*
X0084985Y0068286D01*
X0084592Y0067336D01*
X0084101Y0066845D01*
X0084101Y0063588D01*
X0086203Y0063588D01*
X0086847Y0062944D01*
X0086847Y0053800D01*
X0088353Y0053800D01*
X0088353Y0055098D01*
X0092699Y0055098D01*
X0092699Y0056098D01*
X0088353Y0056098D01*
X0088353Y0062686D01*
X0088455Y0063067D01*
X0088652Y0063409D01*
X0088932Y0063688D01*
X0089274Y0063886D01*
X0089655Y0063988D01*
X0092699Y0063988D01*
X0092699Y0056098D01*
X0093699Y0056098D01*
X0098046Y0056098D01*
X0098046Y0062686D01*
X0097943Y0063067D01*
X0097746Y0063409D01*
X0097467Y0063688D01*
X0097125Y0063886D01*
X0096743Y0063988D01*
X0093699Y0063988D01*
X0093699Y0056098D01*
X0093699Y0055098D01*
X0098046Y0055098D01*
X0098046Y0053800D01*
X0129337Y0053800D01*
X0125937Y0057200D01*
X0119196Y0057200D01*
X0119196Y0055982D01*
X0118552Y0055338D01*
X0112916Y0055338D01*
X0112272Y0055982D01*
X0112272Y0061618D01*
X0112916Y0062262D01*
X0118552Y0062262D01*
X0119196Y0061618D01*
X0119196Y0060400D01*
X0127263Y0060400D01*
X0132263Y0055400D01*
X0149677Y0055400D01*
X0152350Y0058073D01*
X0152350Y0063075D01*
X0152995Y0063719D01*
X0160205Y0063719D01*
X0160850Y0063075D01*
X0160850Y0057045D01*
X0160205Y0056401D01*
X0155204Y0056401D01*
X0152603Y0053800D01*
X0170554Y0053800D01*
X0170554Y0062944D01*
X0171199Y0063588D01*
X0172638Y0063588D01*
X0172638Y0071243D01*
X0171961Y0071243D01*
X0171317Y0071888D01*
X0171317Y0075712D01*
X0171961Y0076357D01*
X0176514Y0076357D01*
X0176600Y0076271D01*
X0176686Y0076357D01*
X0181239Y0076357D01*
X0181883Y0075712D01*
X0181883Y0073142D01*
X0183200Y0071825D01*
X0183200Y0068776D01*
X0183243Y0068758D01*
X0184058Y0067943D01*
X0184500Y0066877D01*
X0184500Y0065723D01*
X0184058Y0064657D01*
X0183243Y0063841D01*
X0182631Y0063588D01*
X0184900Y0063588D01*
X0184900Y0077363D01*
X0185337Y0077800D01*
X0103999Y0077800D01*
X0103999Y0075195D01*
X0103355Y0074550D01*
X0097325Y0074550D01*
X0096681Y0075195D01*
X0096681Y0082405D01*
X0097325Y0083050D01*
X0103355Y0083050D01*
X0103999Y0082405D01*
X0103999Y0081000D01*
X0185837Y0081000D01*
X0192100Y0087263D01*
X0193037Y0088200D01*
X0200180Y0088200D01*
X0199617Y0088433D01*
X0198633Y0089417D01*
X0198100Y0090704D01*
X0198100Y0096896D01*
X0198207Y0097154D01*
X0195100Y0094047D01*
X0195100Y0090704D01*
X0194567Y0089417D01*
X0193583Y0088433D01*
X0192296Y0087900D01*
X0190904Y0087900D01*
X0189617Y0088433D01*
X0188633Y0089417D01*
X0188100Y0090704D01*
X0188100Y0096896D01*
X0188633Y0098183D01*
X0189617Y0099167D01*
X0190904Y0099700D01*
X0192296Y0099700D01*
X0193583Y0099167D01*
X0193649Y0099101D01*
X0204300Y0109753D01*
X0205391Y0110843D01*
X0204719Y0110843D01*
X0204338Y0110946D01*
X0203996Y0111143D01*
X0203717Y0111422D01*
X0203519Y0111764D01*
X0203417Y0112146D01*
X0203417Y0113572D01*
X0206509Y0113572D01*
X0206509Y0114028D01*
X0203417Y0114028D01*
X0203417Y0115454D01*
X0203519Y0115836D01*
X0203717Y0116178D01*
X0203996Y0116457D01*
X0204338Y0116654D01*
X0204719Y0116757D01*
X0206509Y0116757D01*
X0206509Y0114028D01*
X0206966Y0114028D01*
X0206966Y0116757D01*
X0208756Y0116757D01*
X0209138Y0116654D01*
X0209300Y0116561D01*
X0209300Y0118750D01*
X0208633Y0119417D01*
X0208100Y0120704D01*
X0208100Y0126896D01*
X0208633Y0128183D01*
X0209617Y0129167D01*
X0210904Y0129700D01*
X0212296Y0129700D01*
X0213583Y0129167D01*
X0214567Y0128183D01*
X0215100Y0126896D01*
X0215100Y0120704D01*
X0214567Y0119417D01*
X0213900Y0118750D01*
X0213900Y0116195D01*
X0214383Y0115712D01*
X0214383Y0114270D01*
X0221293Y0107360D01*
X0267350Y0107360D01*
X0267350Y0108075D01*
X0267995Y0108719D01*
X0273266Y0108719D01*
X0273428Y0108881D01*
X0267995Y0108881D01*
X0267350Y0109525D01*
X0267350Y0115555D01*
X0267995Y0116199D01*
X0270000Y0116199D01*
X0270000Y0118274D01*
X0269617Y0118433D01*
X0268633Y0119417D01*
X0268100Y0120704D01*
X0268100Y0126896D01*
X0268633Y0128183D01*
X0269617Y0129167D01*
X0270904Y0129700D01*
X0272296Y0129700D01*
X0273583Y0129167D01*
X0274567Y0128183D01*
X0275100Y0126896D01*
X0275100Y0120704D01*
X0274567Y0119417D01*
X0273583Y0118433D01*
X0273200Y0118274D01*
X0273200Y0116199D01*
X0275205Y0116199D01*
X0275850Y0115555D01*
X0275850Y0111302D01*
X0284300Y0119753D01*
X0285647Y0121100D01*
X0315400Y0121100D01*
X0316086Y0121384D01*
X0317114Y0121384D01*
X0317181Y0121357D01*
X0321120Y0121357D01*
X0321220Y0121457D01*
X0321562Y0121654D01*
X0321944Y0121757D01*
X0323734Y0121757D01*
X0323734Y0119028D01*
X0322159Y0119028D01*
X0322159Y0118572D01*
X0323734Y0118572D01*
X0323734Y0119028D01*
X0324191Y0119028D01*
X0327283Y0119028D01*
X0327283Y0120404D01*
X0331050Y0116637D01*
X0331050Y0114094D01*
X0331694Y0113450D01*
X0333000Y0113450D01*
X0333000Y0112463D01*
X0325937Y0105400D01*
X0325000Y0104463D01*
X0325000Y0098443D01*
X0324800Y0098273D01*
X0324800Y0098994D01*
X0324156Y0099639D01*
X0321300Y0099639D01*
X0321300Y0113615D01*
X0321409Y0114080D01*
X0321300Y0114256D01*
X0321300Y0114463D01*
X0320962Y0114800D01*
X0320068Y0116243D01*
X0321120Y0116243D01*
X0321220Y0116143D01*
X0321562Y0115946D01*
X0321944Y0115843D01*
X0323734Y0115843D01*
X0323734Y0118572D01*
X0324191Y0118572D01*
X0324191Y0119028D01*
X0324191Y0121757D01*
X0325931Y0121757D01*
X0315487Y0132200D01*
X0262263Y0132200D01*
X0255100Y0125037D01*
X0255100Y0120704D01*
X0254567Y0119417D01*
X0253583Y0118433D01*
X0252296Y0117900D01*
X0250904Y0117900D01*
X0249617Y0118433D01*
X0248633Y0119417D01*
X0248100Y0120704D01*
X0248100Y0126896D01*
X0248633Y0128183D01*
X0249617Y0129167D01*
X0250904Y0129700D01*
X0252296Y0129700D01*
X0253583Y0129167D01*
X0254144Y0128606D01*
X0259337Y0133800D01*
X0213863Y0133800D01*
X0219056Y0128606D01*
X0219617Y0129167D01*
X0220904Y0129700D01*
X0222296Y0129700D01*
X0223583Y0129167D01*
X0224567Y0128183D01*
X0225100Y0126896D01*
X0225100Y0120704D01*
X0224567Y0119417D01*
X0223583Y0118433D01*
X0222296Y0117900D01*
X0220904Y0117900D01*
X0219617Y0118433D01*
X0218633Y0119417D01*
X0218100Y0120704D01*
X0218100Y0125037D01*
X0210937Y0132200D01*
X0205000Y0132200D01*
X0202746Y0129946D01*
X0203447Y0129656D01*
X0204086Y0129229D01*
X0204629Y0128686D01*
X0205056Y0128047D01*
X0205350Y0127338D01*
X0205500Y0126584D01*
X0205500Y0124100D01*
X0201900Y0124100D01*
X0201900Y0123500D01*
X0205500Y0123500D01*
X0205500Y0121016D01*
X0205350Y0120262D01*
X0205056Y0119553D01*
X0204629Y0118914D01*
X0204086Y0118371D01*
X0203447Y0117944D01*
X0202738Y0117650D01*
X0201984Y0117500D01*
X0201900Y0117500D01*
X0201900Y0123500D01*
X0201300Y0123500D01*
X0201300Y0117500D01*
X0201216Y0117500D01*
X0200462Y0117650D01*
X0199753Y0117944D01*
X0199114Y0118371D01*
X0198571Y0118914D01*
X0198144Y0119553D01*
X0197850Y0120262D01*
X0197700Y0121016D01*
X0197700Y0123500D01*
X0201300Y0123500D01*
X0201300Y0124100D01*
X0197700Y0124100D01*
X0197700Y0124900D01*
X0195100Y0122300D01*
X0195100Y0120704D01*
X0194567Y0119417D01*
X0193583Y0118433D01*
X0192296Y0117900D01*
X0190904Y0117900D01*
X0190760Y0117960D01*
X0181600Y0108800D01*
X0129004Y0108800D01*
X0139127Y0098677D01*
X0139617Y0099167D01*
X0140904Y0099700D01*
X0142296Y0099700D01*
X0143583Y0099167D01*
X0144567Y0098183D01*
X0145100Y0096896D01*
X0145100Y0090704D01*
X0144567Y0089417D01*
X0143583Y0088433D01*
X0142296Y0087900D01*
X0140904Y0087900D01*
X0139617Y0088433D01*
X0138633Y0089417D01*
X0138100Y0090704D01*
X0138100Y0094896D01*
X0124196Y0108800D01*
X0043600Y0108800D01*
X0043600Y0108711D02*
X0124285Y0108711D01*
X0125284Y0107712D02*
X0043600Y0107712D01*
X0043600Y0106714D02*
X0126282Y0106714D01*
X0127281Y0105715D02*
X0043600Y0105715D01*
X0043600Y0104717D02*
X0128279Y0104717D01*
X0129278Y0103718D02*
X0043600Y0103718D01*
X0043600Y0102720D02*
X0130276Y0102720D01*
X0131275Y0101721D02*
X0043600Y0101721D01*
X0043600Y0100723D02*
X0132273Y0100723D01*
X0133272Y0099724D02*
X0123283Y0099724D01*
X0123447Y0099656D02*
X0122738Y0099950D01*
X0121984Y0100100D01*
X0121900Y0100100D01*
X0121900Y0094100D01*
X0125500Y0094100D01*
X0125500Y0096584D01*
X0125350Y0097338D01*
X0125056Y0098047D01*
X0124629Y0098686D01*
X0124086Y0099229D01*
X0123447Y0099656D01*
X0124590Y0098726D02*
X0134270Y0098726D01*
X0135269Y0097727D02*
X0125189Y0097727D01*
X0125471Y0096729D02*
X0136267Y0096729D01*
X0137266Y0095730D02*
X0125500Y0095730D01*
X0125500Y0094732D02*
X0138100Y0094732D01*
X0138100Y0093733D02*
X0121900Y0093733D01*
X0121900Y0093500D02*
X0121900Y0094100D01*
X0121300Y0094100D01*
X0121300Y0100100D01*
X0121216Y0100100D01*
X0120462Y0099950D01*
X0119753Y0099656D01*
X0119114Y0099229D01*
X0118571Y0098686D01*
X0118144Y0098047D01*
X0117850Y0097338D01*
X0117700Y0096584D01*
X0117700Y0094100D01*
X0121300Y0094100D01*
X0121300Y0093500D01*
X0121900Y0093500D01*
X0125500Y0093500D01*
X0125500Y0091016D01*
X0125350Y0090262D01*
X0125056Y0089553D01*
X0124629Y0088914D01*
X0124086Y0088371D01*
X0123447Y0087944D01*
X0122738Y0087650D01*
X0121984Y0087500D01*
X0121900Y0087500D01*
X0121900Y0093500D01*
X0121300Y0093500D02*
X0121300Y0087500D01*
X0121216Y0087500D01*
X0120462Y0087650D01*
X0119753Y0087944D01*
X0119114Y0088371D01*
X0118571Y0088914D01*
X0118144Y0089553D01*
X0117850Y0090262D01*
X0117700Y0091016D01*
X0117700Y0093500D01*
X0121300Y0093500D01*
X0121300Y0093733D02*
X0111900Y0093733D01*
X0111900Y0093500D02*
X0111900Y0094100D01*
X0115500Y0094100D01*
X0115500Y0096584D01*
X0115350Y0097338D01*
X0115056Y0098047D01*
X0114629Y0098686D01*
X0114086Y0099229D01*
X0113447Y0099656D01*
X0112738Y0099950D01*
X0111984Y0100100D01*
X0111900Y0100100D01*
X0111900Y0094100D01*
X0111300Y0094100D01*
X0111300Y0100100D01*
X0111216Y0100100D01*
X0110462Y0099950D01*
X0109753Y0099656D01*
X0109114Y0099229D01*
X0108571Y0098686D01*
X0108144Y0098047D01*
X0107850Y0097338D01*
X0107700Y0096584D01*
X0107700Y0094100D01*
X0111300Y0094100D01*
X0111300Y0093500D01*
X0111900Y0093500D01*
X0115500Y0093500D01*
X0115500Y0091016D01*
X0115350Y0090262D01*
X0115056Y0089553D01*
X0114629Y0088914D01*
X0114086Y0088371D01*
X0113447Y0087944D01*
X0112738Y0087650D01*
X0111984Y0087500D01*
X0111900Y0087500D01*
X0111900Y0093500D01*
X0111300Y0093500D02*
X0111300Y0087500D01*
X0111216Y0087500D01*
X0110462Y0087650D01*
X0109753Y0087944D01*
X0109114Y0088371D01*
X0108571Y0088914D01*
X0108144Y0089553D01*
X0107850Y0090262D01*
X0107700Y0091016D01*
X0107700Y0093500D01*
X0111300Y0093500D01*
X0111300Y0093733D02*
X0101900Y0093733D01*
X0101900Y0093500D02*
X0101900Y0094100D01*
X0105500Y0094100D01*
X0105500Y0096584D01*
X0105350Y0097338D01*
X0105056Y0098047D01*
X0104629Y0098686D01*
X0104086Y0099229D01*
X0103447Y0099656D01*
X0102738Y0099950D01*
X0101984Y0100100D01*
X0101900Y0100100D01*
X0101900Y0094100D01*
X0101300Y0094100D01*
X0101300Y0100100D01*
X0101216Y0100100D01*
X0100462Y0099950D01*
X0099753Y0099656D01*
X0099114Y0099229D01*
X0098571Y0098686D01*
X0098144Y0098047D01*
X0097850Y0097338D01*
X0097700Y0096584D01*
X0097700Y0094100D01*
X0101300Y0094100D01*
X0101300Y0093500D01*
X0101900Y0093500D01*
X0105500Y0093500D01*
X0105500Y0091016D01*
X0105350Y0090262D01*
X0105056Y0089553D01*
X0104629Y0088914D01*
X0104086Y0088371D01*
X0103447Y0087944D01*
X0102738Y0087650D01*
X0101984Y0087500D01*
X0101900Y0087500D01*
X0101900Y0093500D01*
X0101300Y0093500D02*
X0101300Y0087500D01*
X0101216Y0087500D01*
X0100462Y0087650D01*
X0099753Y0087944D01*
X0099114Y0088371D01*
X0098571Y0088914D01*
X0098144Y0089553D01*
X0097850Y0090262D01*
X0097700Y0091016D01*
X0097700Y0093500D01*
X0101300Y0093500D01*
X0101300Y0093733D02*
X0091900Y0093733D01*
X0091900Y0093500D02*
X0091900Y0094100D01*
X0095500Y0094100D01*
X0095500Y0096584D01*
X0095350Y0097338D01*
X0095056Y0098047D01*
X0094629Y0098686D01*
X0094086Y0099229D01*
X0093447Y0099656D01*
X0092738Y0099950D01*
X0091984Y0100100D01*
X0091900Y0100100D01*
X0091900Y0094100D01*
X0091300Y0094100D01*
X0091300Y0100100D01*
X0091216Y0100100D01*
X0090462Y0099950D01*
X0089753Y0099656D01*
X0089114Y0099229D01*
X0088571Y0098686D01*
X0088144Y0098047D01*
X0087850Y0097338D01*
X0087700Y0096584D01*
X0087700Y0094100D01*
X0091300Y0094100D01*
X0091300Y0093500D01*
X0091900Y0093500D01*
X0095500Y0093500D01*
X0095500Y0091016D01*
X0095350Y0090262D01*
X0095056Y0089553D01*
X0094629Y0088914D01*
X0094086Y0088371D01*
X0093447Y0087944D01*
X0092738Y0087650D01*
X0091984Y0087500D01*
X0091900Y0087500D01*
X0091900Y0093500D01*
X0091300Y0093500D02*
X0091300Y0087500D01*
X0091216Y0087500D01*
X0090462Y0087650D01*
X0089753Y0087944D01*
X0089114Y0088371D01*
X0088571Y0088914D01*
X0088144Y0089553D01*
X0087850Y0090262D01*
X0087700Y0091016D01*
X0087700Y0093500D01*
X0091300Y0093500D01*
X0091300Y0093733D02*
X0081900Y0093733D01*
X0081900Y0093500D02*
X0081900Y0094100D01*
X0085500Y0094100D01*
X0085500Y0096584D01*
X0085350Y0097338D01*
X0085056Y0098047D01*
X0084629Y0098686D01*
X0084086Y0099229D01*
X0083447Y0099656D01*
X0082738Y0099950D01*
X0081984Y0100100D01*
X0081900Y0100100D01*
X0081900Y0094100D01*
X0081300Y0094100D01*
X0081300Y0100100D01*
X0081216Y0100100D01*
X0080462Y0099950D01*
X0079753Y0099656D01*
X0079114Y0099229D01*
X0078571Y0098686D01*
X0078144Y0098047D01*
X0077850Y0097338D01*
X0077700Y0096584D01*
X0077700Y0094100D01*
X0081300Y0094100D01*
X0081300Y0093500D01*
X0081900Y0093500D01*
X0085500Y0093500D01*
X0085500Y0091016D01*
X0085350Y0090262D01*
X0085056Y0089553D01*
X0084629Y0088914D01*
X0084086Y0088371D01*
X0083447Y0087944D01*
X0082738Y0087650D01*
X0081984Y0087500D01*
X0081900Y0087500D01*
X0081900Y0093500D01*
X0081300Y0093500D02*
X0081300Y0087500D01*
X0081216Y0087500D01*
X0080462Y0087650D01*
X0079753Y0087944D01*
X0079114Y0088371D01*
X0078571Y0088914D01*
X0078144Y0089553D01*
X0077850Y0090262D01*
X0077700Y0091016D01*
X0077700Y0093500D01*
X0081300Y0093500D01*
X0081300Y0093733D02*
X0071900Y0093733D01*
X0071900Y0093500D02*
X0071900Y0094100D01*
X0075500Y0094100D01*
X0075500Y0096584D01*
X0075350Y0097338D01*
X0075056Y0098047D01*
X0074629Y0098686D01*
X0074086Y0099229D01*
X0073447Y0099656D01*
X0072738Y0099950D01*
X0071984Y0100100D01*
X0071900Y0100100D01*
X0071900Y0094100D01*
X0071300Y0094100D01*
X0071300Y0100100D01*
X0071216Y0100100D01*
X0070462Y0099950D01*
X0069753Y0099656D01*
X0069114Y0099229D01*
X0068571Y0098686D01*
X0068144Y0098047D01*
X0067850Y0097338D01*
X0067700Y0096584D01*
X0067700Y0094100D01*
X0071300Y0094100D01*
X0071300Y0093500D01*
X0071900Y0093500D01*
X0075500Y0093500D01*
X0075500Y0091016D01*
X0075350Y0090262D01*
X0075056Y0089553D01*
X0074629Y0088914D01*
X0074086Y0088371D01*
X0073447Y0087944D01*
X0072738Y0087650D01*
X0071984Y0087500D01*
X0071900Y0087500D01*
X0071900Y0093500D01*
X0071300Y0093500D02*
X0071300Y0087500D01*
X0071216Y0087500D01*
X0070462Y0087650D01*
X0069753Y0087944D01*
X0069114Y0088371D01*
X0068571Y0088914D01*
X0068144Y0089553D01*
X0067850Y0090262D01*
X0067700Y0091016D01*
X0067700Y0093500D01*
X0071300Y0093500D01*
X0071300Y0093733D02*
X0061900Y0093733D01*
X0061900Y0093500D02*
X0061900Y0094100D01*
X0061300Y0094100D01*
X0061300Y0100100D01*
X0061216Y0100100D01*
X0060462Y0099950D01*
X0059753Y0099656D01*
X0059114Y0099229D01*
X0058571Y0098686D01*
X0058144Y0098047D01*
X0057850Y0097338D01*
X0057700Y0096584D01*
X0057700Y0094100D01*
X0061300Y0094100D01*
X0061300Y0093500D01*
X0057700Y0093500D01*
X0057700Y0091016D01*
X0057850Y0090262D01*
X0058144Y0089553D01*
X0058525Y0088983D01*
X0058163Y0089224D01*
X0057563Y0089473D01*
X0056925Y0089600D01*
X0056700Y0089600D01*
X0056700Y0086400D01*
X0056500Y0086400D01*
X0056500Y0089600D01*
X0056275Y0089600D01*
X0055637Y0089473D01*
X0055037Y0089224D01*
X0054675Y0088983D01*
X0055056Y0089553D01*
X0055350Y0090262D01*
X0055500Y0091016D01*
X0055500Y0093500D01*
X0051900Y0093500D01*
X0051900Y0094100D01*
X0051300Y0094100D01*
X0051300Y0100100D01*
X0051216Y0100100D01*
X0050462Y0099950D01*
X0049753Y0099656D01*
X0049114Y0099229D01*
X0048571Y0098686D01*
X0048144Y0098047D01*
X0047850Y0097338D01*
X0047700Y0096584D01*
X0047700Y0094100D01*
X0051300Y0094100D01*
X0051300Y0093500D01*
X0051900Y0093500D01*
X0051900Y0087500D01*
X0051984Y0087500D01*
X0052738Y0087650D01*
X0053447Y0087944D01*
X0053957Y0088285D01*
X0053676Y0087863D01*
X0053427Y0087263D01*
X0053300Y0086625D01*
X0053300Y0086400D01*
X0056500Y0086400D01*
X0056500Y0086200D01*
X0053300Y0086200D01*
X0053300Y0085975D01*
X0053427Y0085337D01*
X0053676Y0084737D01*
X0054037Y0084196D01*
X0054496Y0083737D01*
X0055037Y0083376D01*
X0055637Y0083127D01*
X0056275Y0083000D01*
X0056500Y0083000D01*
X0056500Y0086200D01*
X0056700Y0086200D01*
X0056700Y0086400D01*
X0059900Y0086400D01*
X0059900Y0086625D01*
X0059773Y0087263D01*
X0059524Y0087863D01*
X0059243Y0088285D01*
X0059753Y0087944D01*
X0060462Y0087650D01*
X0061216Y0087500D01*
X0061300Y0087500D01*
X0061300Y0093500D01*
X0061900Y0093500D01*
X0065500Y0093500D01*
X0065500Y0091016D01*
X0065350Y0090262D01*
X0065056Y0089553D01*
X0064629Y0088914D01*
X0064086Y0088371D01*
X0063447Y0087944D01*
X0062738Y0087650D01*
X0061984Y0087500D01*
X0061900Y0087500D01*
X0061900Y0093500D01*
X0061900Y0094100D02*
X0065500Y0094100D01*
X0065500Y0096584D01*
X0065350Y0097338D01*
X0065056Y0098047D01*
X0064629Y0098686D01*
X0064086Y0099229D01*
X0063447Y0099656D01*
X0062738Y0099950D01*
X0061984Y0100100D01*
X0061900Y0100100D01*
X0061900Y0094100D01*
X0061900Y0094732D02*
X0061300Y0094732D01*
X0061300Y0095730D02*
X0061900Y0095730D01*
X0061900Y0096729D02*
X0061300Y0096729D01*
X0061300Y0097727D02*
X0061900Y0097727D01*
X0061900Y0098726D02*
X0061300Y0098726D01*
X0061300Y0099724D02*
X0061900Y0099724D01*
X0063283Y0099724D02*
X0069917Y0099724D01*
X0071300Y0099724D02*
X0071900Y0099724D01*
X0071900Y0098726D02*
X0071300Y0098726D01*
X0071300Y0097727D02*
X0071900Y0097727D01*
X0071900Y0096729D02*
X0071300Y0096729D01*
X0071300Y0095730D02*
X0071900Y0095730D01*
X0071900Y0094732D02*
X0071300Y0094732D01*
X0071300Y0092734D02*
X0071900Y0092734D01*
X0071900Y0091736D02*
X0071300Y0091736D01*
X0071300Y0090737D02*
X0071900Y0090737D01*
X0071900Y0089739D02*
X0071300Y0089739D01*
X0071300Y0088740D02*
X0071900Y0088740D01*
X0071900Y0087742D02*
X0071300Y0087742D01*
X0070240Y0087742D02*
X0062960Y0087742D01*
X0061900Y0087742D02*
X0061300Y0087742D01*
X0061300Y0088740D02*
X0061900Y0088740D01*
X0061900Y0089739D02*
X0061300Y0089739D01*
X0061300Y0090737D02*
X0061900Y0090737D01*
X0061900Y0091736D02*
X0061300Y0091736D01*
X0061300Y0092734D02*
X0061900Y0092734D01*
X0061300Y0093733D02*
X0051900Y0093733D01*
X0051900Y0094100D02*
X0055500Y0094100D01*
X0055500Y0096584D01*
X0055350Y0097338D01*
X0055056Y0098047D01*
X0054629Y0098686D01*
X0054086Y0099229D01*
X0053447Y0099656D01*
X0052738Y0099950D01*
X0051984Y0100100D01*
X0051900Y0100100D01*
X0051900Y0094100D01*
X0051900Y0094732D02*
X0051300Y0094732D01*
X0051300Y0095730D02*
X0051900Y0095730D01*
X0051900Y0096729D02*
X0051300Y0096729D01*
X0051300Y0097727D02*
X0051900Y0097727D01*
X0051900Y0098726D02*
X0051300Y0098726D01*
X0051300Y0099724D02*
X0051900Y0099724D01*
X0053283Y0099724D02*
X0059917Y0099724D01*
X0058610Y0098726D02*
X0054590Y0098726D01*
X0055189Y0097727D02*
X0058011Y0097727D01*
X0057729Y0096729D02*
X0055471Y0096729D01*
X0055500Y0095730D02*
X0057700Y0095730D01*
X0057700Y0094732D02*
X0055500Y0094732D01*
X0055500Y0092734D02*
X0057700Y0092734D01*
X0057700Y0091736D02*
X0055500Y0091736D01*
X0055445Y0090737D02*
X0057755Y0090737D01*
X0058067Y0089739D02*
X0055133Y0089739D01*
X0056500Y0088740D02*
X0056700Y0088740D01*
X0056700Y0087742D02*
X0056500Y0087742D01*
X0056500Y0086743D02*
X0056700Y0086743D01*
X0056700Y0086200D02*
X0059900Y0086200D01*
X0059900Y0085975D01*
X0059773Y0085337D01*
X0059524Y0084737D01*
X0059163Y0084196D01*
X0058704Y0083737D01*
X0058163Y0083376D01*
X0057563Y0083127D01*
X0056925Y0083000D01*
X0056700Y0083000D01*
X0056700Y0086200D01*
X0056700Y0085745D02*
X0056500Y0085745D01*
X0056500Y0084746D02*
X0056700Y0084746D01*
X0056700Y0083748D02*
X0056500Y0083748D01*
X0054485Y0083748D02*
X0043600Y0083748D01*
X0043600Y0084746D02*
X0053672Y0084746D01*
X0053346Y0085745D02*
X0043600Y0085745D01*
X0043600Y0086743D02*
X0053324Y0086743D01*
X0053625Y0087742D02*
X0052960Y0087742D01*
X0051900Y0087742D02*
X0051300Y0087742D01*
X0051300Y0087500D02*
X0051300Y0093500D01*
X0047700Y0093500D01*
X0047700Y0091016D01*
X0047850Y0090262D01*
X0048144Y0089553D01*
X0048571Y0088914D01*
X0049114Y0088371D01*
X0049753Y0087944D01*
X0050462Y0087650D01*
X0051216Y0087500D01*
X0051300Y0087500D01*
X0050240Y0087742D02*
X0043600Y0087742D01*
X0043600Y0088740D02*
X0048744Y0088740D01*
X0048067Y0089739D02*
X0043600Y0089739D01*
X0043600Y0090737D02*
X0047755Y0090737D01*
X0047700Y0091736D02*
X0043600Y0091736D01*
X0043600Y0092734D02*
X0047700Y0092734D01*
X0047700Y0094732D02*
X0043600Y0094732D01*
X0043600Y0095730D02*
X0047700Y0095730D01*
X0047729Y0096729D02*
X0043600Y0096729D01*
X0043600Y0097727D02*
X0048011Y0097727D01*
X0048610Y0098726D02*
X0043600Y0098726D01*
X0043600Y0099724D02*
X0049917Y0099724D01*
X0064590Y0098726D02*
X0068610Y0098726D01*
X0068011Y0097727D02*
X0065189Y0097727D01*
X0065471Y0096729D02*
X0067729Y0096729D01*
X0067700Y0095730D02*
X0065500Y0095730D01*
X0065500Y0094732D02*
X0067700Y0094732D01*
X0067700Y0092734D02*
X0065500Y0092734D01*
X0065500Y0091736D02*
X0067700Y0091736D01*
X0067755Y0090737D02*
X0065445Y0090737D01*
X0065133Y0089739D02*
X0068067Y0089739D01*
X0068744Y0088740D02*
X0064456Y0088740D01*
X0060240Y0087742D02*
X0059575Y0087742D01*
X0059876Y0086743D02*
X0178324Y0086743D01*
X0178300Y0086625D02*
X0178300Y0086400D01*
X0181500Y0086400D01*
X0181500Y0086200D01*
X0178300Y0086200D01*
X0178300Y0085975D01*
X0178427Y0085337D01*
X0178676Y0084737D01*
X0179037Y0084196D01*
X0179496Y0083737D01*
X0180037Y0083376D01*
X0180637Y0083127D01*
X0181275Y0083000D01*
X0181500Y0083000D01*
X0181500Y0086200D01*
X0181700Y0086200D01*
X0181700Y0086400D01*
X0184900Y0086400D01*
X0184900Y0086625D01*
X0184773Y0087263D01*
X0184524Y0087863D01*
X0184163Y0088404D01*
X0183858Y0088709D01*
X0184567Y0089417D01*
X0185100Y0090704D01*
X0185100Y0096896D01*
X0184567Y0098183D01*
X0183583Y0099167D01*
X0182296Y0099700D01*
X0180904Y0099700D01*
X0179617Y0099167D01*
X0178633Y0098183D01*
X0178100Y0096896D01*
X0178100Y0090704D01*
X0178633Y0089417D01*
X0179342Y0088709D01*
X0179037Y0088404D01*
X0178676Y0087863D01*
X0178427Y0087263D01*
X0178300Y0086625D01*
X0178346Y0085745D02*
X0059854Y0085745D01*
X0059528Y0084746D02*
X0178672Y0084746D01*
X0179485Y0083748D02*
X0058715Y0083748D01*
X0051900Y0088740D02*
X0051300Y0088740D01*
X0051300Y0089739D02*
X0051900Y0089739D01*
X0051900Y0090737D02*
X0051300Y0090737D01*
X0051300Y0091736D02*
X0051900Y0091736D01*
X0051900Y0092734D02*
X0051300Y0092734D01*
X0051300Y0093733D02*
X0043600Y0093733D01*
X0072960Y0087742D02*
X0080240Y0087742D01*
X0081300Y0087742D02*
X0081900Y0087742D01*
X0081900Y0088740D02*
X0081300Y0088740D01*
X0081300Y0089739D02*
X0081900Y0089739D01*
X0081900Y0090737D02*
X0081300Y0090737D01*
X0081300Y0091736D02*
X0081900Y0091736D01*
X0081900Y0092734D02*
X0081300Y0092734D01*
X0081300Y0094732D02*
X0081900Y0094732D01*
X0081900Y0095730D02*
X0081300Y0095730D01*
X0081300Y0096729D02*
X0081900Y0096729D01*
X0081900Y0097727D02*
X0081300Y0097727D01*
X0081300Y0098726D02*
X0081900Y0098726D01*
X0081900Y0099724D02*
X0081300Y0099724D01*
X0079917Y0099724D02*
X0073283Y0099724D01*
X0074590Y0098726D02*
X0078610Y0098726D01*
X0078011Y0097727D02*
X0075189Y0097727D01*
X0075471Y0096729D02*
X0077729Y0096729D01*
X0077700Y0095730D02*
X0075500Y0095730D01*
X0075500Y0094732D02*
X0077700Y0094732D01*
X0077700Y0092734D02*
X0075500Y0092734D01*
X0075500Y0091736D02*
X0077700Y0091736D01*
X0077755Y0090737D02*
X0075445Y0090737D01*
X0075133Y0089739D02*
X0078067Y0089739D01*
X0078744Y0088740D02*
X0074456Y0088740D01*
X0082960Y0087742D02*
X0090240Y0087742D01*
X0091300Y0087742D02*
X0091900Y0087742D01*
X0091900Y0088740D02*
X0091300Y0088740D01*
X0091300Y0089739D02*
X0091900Y0089739D01*
X0091900Y0090737D02*
X0091300Y0090737D01*
X0091300Y0091736D02*
X0091900Y0091736D01*
X0091900Y0092734D02*
X0091300Y0092734D01*
X0091300Y0094732D02*
X0091900Y0094732D01*
X0091900Y0095730D02*
X0091300Y0095730D01*
X0091300Y0096729D02*
X0091900Y0096729D01*
X0091900Y0097727D02*
X0091300Y0097727D01*
X0091300Y0098726D02*
X0091900Y0098726D01*
X0091900Y0099724D02*
X0091300Y0099724D01*
X0089917Y0099724D02*
X0083283Y0099724D01*
X0084590Y0098726D02*
X0088610Y0098726D01*
X0088011Y0097727D02*
X0085189Y0097727D01*
X0085471Y0096729D02*
X0087729Y0096729D01*
X0087700Y0095730D02*
X0085500Y0095730D01*
X0085500Y0094732D02*
X0087700Y0094732D01*
X0087700Y0092734D02*
X0085500Y0092734D01*
X0085500Y0091736D02*
X0087700Y0091736D01*
X0087755Y0090737D02*
X0085445Y0090737D01*
X0085133Y0089739D02*
X0088067Y0089739D01*
X0088744Y0088740D02*
X0084456Y0088740D01*
X0092960Y0087742D02*
X0100240Y0087742D01*
X0101300Y0087742D02*
X0101900Y0087742D01*
X0101900Y0088740D02*
X0101300Y0088740D01*
X0101300Y0089739D02*
X0101900Y0089739D01*
X0101900Y0090737D02*
X0101300Y0090737D01*
X0101300Y0091736D02*
X0101900Y0091736D01*
X0101900Y0092734D02*
X0101300Y0092734D01*
X0101300Y0094732D02*
X0101900Y0094732D01*
X0101900Y0095730D02*
X0101300Y0095730D01*
X0101300Y0096729D02*
X0101900Y0096729D01*
X0101900Y0097727D02*
X0101300Y0097727D01*
X0101300Y0098726D02*
X0101900Y0098726D01*
X0101900Y0099724D02*
X0101300Y0099724D01*
X0099917Y0099724D02*
X0093283Y0099724D01*
X0094590Y0098726D02*
X0098610Y0098726D01*
X0098011Y0097727D02*
X0095189Y0097727D01*
X0095471Y0096729D02*
X0097729Y0096729D01*
X0097700Y0095730D02*
X0095500Y0095730D01*
X0095500Y0094732D02*
X0097700Y0094732D01*
X0097700Y0092734D02*
X0095500Y0092734D01*
X0095500Y0091736D02*
X0097700Y0091736D01*
X0097755Y0090737D02*
X0095445Y0090737D01*
X0095133Y0089739D02*
X0098067Y0089739D01*
X0098744Y0088740D02*
X0094456Y0088740D01*
X0102960Y0087742D02*
X0110240Y0087742D01*
X0111300Y0087742D02*
X0111900Y0087742D01*
X0111900Y0088740D02*
X0111300Y0088740D01*
X0111300Y0089739D02*
X0111900Y0089739D01*
X0111900Y0090737D02*
X0111300Y0090737D01*
X0111300Y0091736D02*
X0111900Y0091736D01*
X0111900Y0092734D02*
X0111300Y0092734D01*
X0111300Y0094732D02*
X0111900Y0094732D01*
X0111900Y0095730D02*
X0111300Y0095730D01*
X0111300Y0096729D02*
X0111900Y0096729D01*
X0111900Y0097727D02*
X0111300Y0097727D01*
X0111300Y0098726D02*
X0111900Y0098726D01*
X0111900Y0099724D02*
X0111300Y0099724D01*
X0109917Y0099724D02*
X0103283Y0099724D01*
X0104590Y0098726D02*
X0108610Y0098726D01*
X0108011Y0097727D02*
X0105189Y0097727D01*
X0105471Y0096729D02*
X0107729Y0096729D01*
X0107700Y0095730D02*
X0105500Y0095730D01*
X0105500Y0094732D02*
X0107700Y0094732D01*
X0107700Y0092734D02*
X0105500Y0092734D01*
X0105500Y0091736D02*
X0107700Y0091736D01*
X0107755Y0090737D02*
X0105445Y0090737D01*
X0105133Y0089739D02*
X0108067Y0089739D01*
X0108744Y0088740D02*
X0104456Y0088740D01*
X0112960Y0087742D02*
X0120240Y0087742D01*
X0121300Y0087742D02*
X0121900Y0087742D01*
X0121900Y0088740D02*
X0121300Y0088740D01*
X0121300Y0089739D02*
X0121900Y0089739D01*
X0121900Y0090737D02*
X0121300Y0090737D01*
X0121300Y0091736D02*
X0121900Y0091736D01*
X0121900Y0092734D02*
X0121300Y0092734D01*
X0121300Y0094732D02*
X0121900Y0094732D01*
X0121900Y0095730D02*
X0121300Y0095730D01*
X0121300Y0096729D02*
X0121900Y0096729D01*
X0121900Y0097727D02*
X0121300Y0097727D01*
X0121300Y0098726D02*
X0121900Y0098726D01*
X0121900Y0099724D02*
X0121300Y0099724D01*
X0119917Y0099724D02*
X0113283Y0099724D01*
X0114590Y0098726D02*
X0118610Y0098726D01*
X0118011Y0097727D02*
X0115189Y0097727D01*
X0115471Y0096729D02*
X0117729Y0096729D01*
X0117700Y0095730D02*
X0115500Y0095730D01*
X0115500Y0094732D02*
X0117700Y0094732D01*
X0117700Y0092734D02*
X0115500Y0092734D01*
X0115500Y0091736D02*
X0117700Y0091736D01*
X0117755Y0090737D02*
X0115445Y0090737D01*
X0115133Y0089739D02*
X0118067Y0089739D01*
X0118744Y0088740D02*
X0114456Y0088740D01*
X0122960Y0087742D02*
X0178625Y0087742D01*
X0179310Y0088740D02*
X0173890Y0088740D01*
X0173583Y0088433D02*
X0174567Y0089417D01*
X0175100Y0090704D01*
X0175100Y0096896D01*
X0174567Y0098183D01*
X0173583Y0099167D01*
X0172296Y0099700D01*
X0170904Y0099700D01*
X0169617Y0099167D01*
X0168633Y0098183D01*
X0168100Y0096896D01*
X0168100Y0090704D01*
X0168633Y0089417D01*
X0169617Y0088433D01*
X0170904Y0087900D01*
X0172296Y0087900D01*
X0173583Y0088433D01*
X0174700Y0089739D02*
X0178500Y0089739D01*
X0178100Y0090737D02*
X0175100Y0090737D01*
X0175100Y0091736D02*
X0178100Y0091736D01*
X0178100Y0092734D02*
X0175100Y0092734D01*
X0175100Y0093733D02*
X0178100Y0093733D01*
X0178100Y0094732D02*
X0175100Y0094732D01*
X0175100Y0095730D02*
X0178100Y0095730D01*
X0178100Y0096729D02*
X0175100Y0096729D01*
X0174756Y0097727D02*
X0178444Y0097727D01*
X0179176Y0098726D02*
X0174024Y0098726D01*
X0169176Y0098726D02*
X0164024Y0098726D01*
X0163583Y0099167D02*
X0162296Y0099700D01*
X0160904Y0099700D01*
X0159617Y0099167D01*
X0158633Y0098183D01*
X0158100Y0096896D01*
X0158100Y0090704D01*
X0158633Y0089417D01*
X0159617Y0088433D01*
X0160904Y0087900D01*
X0162296Y0087900D01*
X0163583Y0088433D01*
X0164567Y0089417D01*
X0165100Y0090704D01*
X0165100Y0096896D01*
X0164567Y0098183D01*
X0163583Y0099167D01*
X0164756Y0097727D02*
X0168444Y0097727D01*
X0168100Y0096729D02*
X0165100Y0096729D01*
X0165100Y0095730D02*
X0168100Y0095730D01*
X0168100Y0094732D02*
X0165100Y0094732D01*
X0165100Y0093733D02*
X0168100Y0093733D01*
X0168100Y0092734D02*
X0165100Y0092734D01*
X0165100Y0091736D02*
X0168100Y0091736D01*
X0168100Y0090737D02*
X0165100Y0090737D01*
X0164700Y0089739D02*
X0168500Y0089739D01*
X0169310Y0088740D02*
X0163890Y0088740D01*
X0159310Y0088740D02*
X0153890Y0088740D01*
X0153583Y0088433D02*
X0154567Y0089417D01*
X0155100Y0090704D01*
X0155100Y0096896D01*
X0154567Y0098183D01*
X0153583Y0099167D01*
X0152296Y0099700D01*
X0150904Y0099700D01*
X0149617Y0099167D01*
X0148633Y0098183D01*
X0148100Y0096896D01*
X0148100Y0090704D01*
X0148633Y0089417D01*
X0149617Y0088433D01*
X0150904Y0087900D01*
X0152296Y0087900D01*
X0153583Y0088433D01*
X0154700Y0089739D02*
X0158500Y0089739D01*
X0158100Y0090737D02*
X0155100Y0090737D01*
X0155100Y0091736D02*
X0158100Y0091736D01*
X0158100Y0092734D02*
X0155100Y0092734D01*
X0155100Y0093733D02*
X0158100Y0093733D01*
X0158100Y0094732D02*
X0155100Y0094732D01*
X0155100Y0095730D02*
X0158100Y0095730D01*
X0158100Y0096729D02*
X0155100Y0096729D01*
X0154756Y0097727D02*
X0158444Y0097727D01*
X0159176Y0098726D02*
X0154024Y0098726D01*
X0149176Y0098726D02*
X0144024Y0098726D01*
X0144756Y0097727D02*
X0148444Y0097727D01*
X0148100Y0096729D02*
X0145100Y0096729D01*
X0145100Y0095730D02*
X0148100Y0095730D01*
X0148100Y0094732D02*
X0145100Y0094732D01*
X0145100Y0093733D02*
X0148100Y0093733D01*
X0148100Y0092734D02*
X0145100Y0092734D01*
X0145100Y0091736D02*
X0148100Y0091736D01*
X0148100Y0090737D02*
X0145100Y0090737D01*
X0144700Y0089739D02*
X0148500Y0089739D01*
X0149310Y0088740D02*
X0143890Y0088740D01*
X0139310Y0088740D02*
X0124456Y0088740D01*
X0125133Y0089739D02*
X0138500Y0089739D01*
X0138100Y0090737D02*
X0125445Y0090737D01*
X0125500Y0091736D02*
X0138100Y0091736D01*
X0138100Y0092734D02*
X0125500Y0092734D01*
X0139079Y0098726D02*
X0139176Y0098726D01*
X0138080Y0099724D02*
X0194271Y0099724D01*
X0195270Y0100723D02*
X0137082Y0100723D01*
X0136083Y0101721D02*
X0196268Y0101721D01*
X0197267Y0102720D02*
X0135085Y0102720D01*
X0134086Y0103718D02*
X0198265Y0103718D01*
X0199264Y0104717D02*
X0133088Y0104717D01*
X0132089Y0105715D02*
X0200262Y0105715D01*
X0201261Y0106714D02*
X0131090Y0106714D01*
X0130092Y0107712D02*
X0202259Y0107712D01*
X0203258Y0108711D02*
X0129093Y0108711D01*
X0164100Y0131300D02*
X0171600Y0123800D01*
X0164100Y0131300D02*
X0089100Y0131300D01*
X0081600Y0123800D01*
X0081600Y0133800D02*
X0071600Y0123800D01*
X0081600Y0133800D02*
X0211600Y0133800D01*
X0221600Y0123800D01*
X0225100Y0123688D02*
X0228100Y0123688D01*
X0228100Y0122690D02*
X0225100Y0122690D01*
X0225100Y0121691D02*
X0228100Y0121691D01*
X0228100Y0120704D02*
X0228633Y0119417D01*
X0229617Y0118433D01*
X0230904Y0117900D01*
X0232296Y0117900D01*
X0233583Y0118433D01*
X0234567Y0119417D01*
X0235100Y0120704D01*
X0235100Y0126896D01*
X0234567Y0128183D01*
X0233583Y0129167D01*
X0232296Y0129700D01*
X0230904Y0129700D01*
X0229617Y0129167D01*
X0228633Y0128183D01*
X0228100Y0126896D01*
X0228100Y0120704D01*
X0228105Y0120693D02*
X0225095Y0120693D01*
X0224682Y0119694D02*
X0228518Y0119694D01*
X0229354Y0118696D02*
X0223846Y0118696D01*
X0219354Y0118696D02*
X0213900Y0118696D01*
X0213900Y0117697D02*
X0270000Y0117697D01*
X0270000Y0116699D02*
X0213900Y0116699D01*
X0214383Y0115700D02*
X0267496Y0115700D01*
X0267350Y0114702D02*
X0214383Y0114702D01*
X0214949Y0113703D02*
X0267350Y0113703D01*
X0267350Y0112705D02*
X0215948Y0112705D01*
X0216946Y0111706D02*
X0267350Y0111706D01*
X0267350Y0110708D02*
X0217945Y0110708D01*
X0218943Y0109709D02*
X0267350Y0109709D01*
X0267987Y0108711D02*
X0219942Y0108711D01*
X0220941Y0107712D02*
X0267350Y0107712D01*
X0275850Y0111706D02*
X0276254Y0111706D01*
X0275850Y0112705D02*
X0277252Y0112705D01*
X0278251Y0113703D02*
X0275850Y0113703D01*
X0275850Y0114702D02*
X0279249Y0114702D01*
X0280248Y0115700D02*
X0275704Y0115700D01*
X0273200Y0116699D02*
X0281246Y0116699D01*
X0282245Y0117697D02*
X0273200Y0117697D01*
X0273846Y0118696D02*
X0283243Y0118696D01*
X0284242Y0119694D02*
X0274682Y0119694D01*
X0275095Y0120693D02*
X0285240Y0120693D01*
X0275100Y0121691D02*
X0321700Y0121691D01*
X0323734Y0121691D02*
X0324191Y0121691D01*
X0324191Y0120693D02*
X0323734Y0120693D01*
X0323734Y0119694D02*
X0324191Y0119694D01*
X0324191Y0118696D02*
X0328991Y0118696D01*
X0327993Y0119694D02*
X0327283Y0119694D01*
X0327283Y0118572D02*
X0324191Y0118572D01*
X0324191Y0115843D01*
X0325981Y0115843D01*
X0326362Y0115946D01*
X0326704Y0116143D01*
X0326983Y0116422D01*
X0327181Y0116764D01*
X0327283Y0117146D01*
X0327283Y0118572D01*
X0327283Y0117697D02*
X0329990Y0117697D01*
X0330988Y0116699D02*
X0327143Y0116699D01*
X0324191Y0116699D02*
X0323734Y0116699D01*
X0323734Y0117697D02*
X0324191Y0117697D01*
X0323734Y0118696D02*
X0322159Y0118696D01*
X0319238Y0118800D02*
X0316600Y0118800D01*
X0317000Y0118800D01*
X0317000Y0118100D01*
X0316600Y0118800D01*
X0319700Y0113800D01*
X0319700Y0098300D01*
X0320400Y0097639D01*
X0324800Y0098726D02*
X0325000Y0098726D01*
X0325000Y0099724D02*
X0321300Y0099724D01*
X0321300Y0100723D02*
X0325000Y0100723D01*
X0325000Y0101721D02*
X0321300Y0101721D01*
X0321300Y0102720D02*
X0325000Y0102720D01*
X0325000Y0103718D02*
X0321300Y0103718D01*
X0321300Y0104717D02*
X0325254Y0104717D01*
X0326252Y0105715D02*
X0321300Y0105715D01*
X0321300Y0106714D02*
X0327251Y0106714D01*
X0328249Y0107712D02*
X0321300Y0107712D01*
X0321300Y0108711D02*
X0329248Y0108711D01*
X0330246Y0109709D02*
X0321300Y0109709D01*
X0321300Y0110708D02*
X0331245Y0110708D01*
X0332243Y0111706D02*
X0321300Y0111706D01*
X0321300Y0112705D02*
X0333000Y0112705D01*
X0334600Y0111800D02*
X0326600Y0103800D01*
X0326600Y0097700D01*
X0323500Y0095080D01*
X0320400Y0095080D01*
X0315320Y0095080D01*
X0311600Y0098800D01*
X0311600Y0105060D01*
X0312840Y0106300D01*
X0305360Y0106300D02*
X0305300Y0105500D01*
X0301600Y0105500D01*
X0314580Y0092520D01*
X0320400Y0092520D01*
X0324800Y0092734D02*
X0328500Y0092734D01*
X0328500Y0091736D02*
X0324927Y0091736D01*
X0324900Y0091782D02*
X0324800Y0091883D01*
X0324800Y0094083D01*
X0327186Y0096100D01*
X0327263Y0096100D01*
X0327684Y0096521D01*
X0328139Y0096906D01*
X0328145Y0096983D01*
X0328200Y0097037D01*
X0328200Y0097633D01*
X0328250Y0098227D01*
X0328200Y0098286D01*
X0328200Y0103137D01*
X0328500Y0103437D01*
X0328500Y0089100D01*
X0325200Y0089100D01*
X0325200Y0089961D01*
X0320400Y0089961D01*
X0320400Y0089961D01*
X0322761Y0089961D01*
X0326600Y0091300D01*
X0325200Y0091059D02*
X0325200Y0089961D01*
X0320400Y0089961D01*
X0325200Y0089739D02*
X0328500Y0089739D01*
X0328500Y0090737D02*
X0325200Y0090737D01*
X0325200Y0091059D02*
X0325098Y0091440D01*
X0324900Y0091782D01*
X0324800Y0093733D02*
X0328500Y0093733D01*
X0328500Y0094732D02*
X0325567Y0094732D01*
X0326748Y0095730D02*
X0328500Y0095730D01*
X0328500Y0096729D02*
X0327929Y0096729D01*
X0328208Y0097727D02*
X0328500Y0097727D01*
X0328500Y0098726D02*
X0328200Y0098726D01*
X0328200Y0099724D02*
X0328500Y0099724D01*
X0328500Y0100723D02*
X0328200Y0100723D01*
X0328200Y0101721D02*
X0328500Y0101721D01*
X0328500Y0102720D02*
X0328200Y0102720D01*
X0330100Y0103300D02*
X0330100Y0088400D01*
X0329200Y0087500D01*
X0316100Y0087500D01*
X0308000Y0095600D01*
X0308000Y0096500D01*
X0307100Y0097400D01*
X0303500Y0097400D01*
X0302800Y0097639D01*
X0302600Y0098300D01*
X0290900Y0098300D01*
X0290340Y0098800D01*
X0285500Y0093800D02*
X0282800Y0096500D01*
X0282800Y0098300D01*
X0282860Y0098800D01*
X0282800Y0096500D02*
X0272900Y0086600D01*
X0193700Y0086600D01*
X0186500Y0079400D01*
X0101000Y0079400D01*
X0100340Y0078800D01*
X0096681Y0078755D02*
X0096519Y0078755D01*
X0096519Y0077757D02*
X0096681Y0077757D01*
X0096681Y0076758D02*
X0096519Y0076758D01*
X0096519Y0075760D02*
X0096681Y0075760D01*
X0096519Y0075195D02*
X0096519Y0082405D01*
X0095875Y0083050D01*
X0089845Y0083050D01*
X0089201Y0082405D01*
X0089201Y0077900D01*
X0069076Y0077900D01*
X0069058Y0077943D01*
X0068243Y0078758D01*
X0067177Y0079200D01*
X0066023Y0079200D01*
X0064957Y0078758D01*
X0064141Y0077943D01*
X0063700Y0076877D01*
X0063700Y0075723D01*
X0064141Y0074657D01*
X0064957Y0073841D01*
X0066023Y0073400D01*
X0067177Y0073400D01*
X0068243Y0073841D01*
X0069058Y0074657D01*
X0069076Y0074700D01*
X0089696Y0074700D01*
X0089845Y0074550D01*
X0095875Y0074550D01*
X0096519Y0075195D01*
X0096085Y0074761D02*
X0097115Y0074761D01*
X0092860Y0078800D02*
X0090360Y0076300D01*
X0066600Y0076300D01*
X0064065Y0077757D02*
X0043600Y0077757D01*
X0043600Y0078755D02*
X0064954Y0078755D01*
X0063700Y0076758D02*
X0043600Y0076758D01*
X0043600Y0075760D02*
X0048864Y0075760D01*
X0048817Y0074761D02*
X0043600Y0074761D01*
X0043600Y0073763D02*
X0048817Y0073763D01*
X0048817Y0072764D02*
X0043600Y0072764D01*
X0043600Y0071766D02*
X0048939Y0071766D01*
X0050138Y0070767D02*
X0043600Y0070767D01*
X0043600Y0069769D02*
X0050138Y0069769D01*
X0050138Y0068770D02*
X0043600Y0068770D01*
X0043600Y0067772D02*
X0050138Y0067772D01*
X0050138Y0066773D02*
X0043600Y0066773D01*
X0043600Y0065775D02*
X0050138Y0065775D01*
X0050138Y0064776D02*
X0043600Y0064776D01*
X0043600Y0063778D02*
X0050138Y0063778D01*
X0045554Y0062779D02*
X0043600Y0062779D01*
X0043600Y0061781D02*
X0045554Y0061781D01*
X0045554Y0060782D02*
X0043600Y0060782D01*
X0043600Y0059784D02*
X0045554Y0059784D01*
X0045554Y0058785D02*
X0043600Y0058785D01*
X0043600Y0057787D02*
X0045554Y0057787D01*
X0045554Y0056788D02*
X0043600Y0056788D01*
X0043600Y0055790D02*
X0045554Y0055790D01*
X0045554Y0054791D02*
X0043600Y0054791D01*
X0050001Y0055598D02*
X0051738Y0057335D01*
X0051738Y0073800D01*
X0056462Y0073800D02*
X0056600Y0073662D01*
X0056600Y0066300D01*
X0059129Y0067772D02*
X0080030Y0067772D01*
X0079817Y0068770D02*
X0058214Y0068770D01*
X0058200Y0069769D02*
X0080005Y0069769D01*
X0080713Y0070767D02*
X0058200Y0070767D01*
X0059261Y0071766D02*
X0103720Y0071766D01*
X0103706Y0071741D02*
X0103604Y0071360D01*
X0103604Y0069300D01*
X0106966Y0069300D01*
X0106966Y0068300D01*
X0103604Y0068300D01*
X0103604Y0066240D01*
X0103706Y0065859D01*
X0103904Y0065517D01*
X0104183Y0065237D01*
X0104525Y0065040D01*
X0104906Y0064938D01*
X0106966Y0064938D01*
X0106966Y0068300D01*
X0107966Y0068300D01*
X0107966Y0064938D01*
X0110026Y0064938D01*
X0110407Y0065040D01*
X0110749Y0065237D01*
X0111029Y0065517D01*
X0111226Y0065859D01*
X0111328Y0066240D01*
X0111328Y0068300D01*
X0107966Y0068300D01*
X0107966Y0069300D01*
X0106966Y0069300D01*
X0106966Y0072662D01*
X0104906Y0072662D01*
X0104525Y0072560D01*
X0104183Y0072362D01*
X0103904Y0072083D01*
X0103706Y0071741D01*
X0103604Y0070767D02*
X0084088Y0070767D01*
X0084797Y0069769D02*
X0103604Y0069769D01*
X0106966Y0069769D02*
X0107966Y0069769D01*
X0107966Y0069300D02*
X0107966Y0072662D01*
X0110026Y0072662D01*
X0110407Y0072560D01*
X0110749Y0072362D01*
X0111029Y0072083D01*
X0111226Y0071741D01*
X0111328Y0071360D01*
X0111328Y0069300D01*
X0107966Y0069300D01*
X0107966Y0068770D02*
X0112272Y0068770D01*
X0112272Y0067772D02*
X0111328Y0067772D01*
X0111328Y0066773D02*
X0112272Y0066773D01*
X0112272Y0065982D02*
X0112916Y0065338D01*
X0118552Y0065338D01*
X0119196Y0065982D01*
X0119196Y0067200D01*
X0125937Y0067200D01*
X0134677Y0058460D01*
X0137350Y0058460D01*
X0137350Y0057045D01*
X0137995Y0056401D01*
X0145205Y0056401D01*
X0145850Y0057045D01*
X0145850Y0063075D01*
X0145205Y0063719D01*
X0137995Y0063719D01*
X0137350Y0063075D01*
X0137350Y0061660D01*
X0136003Y0061660D01*
X0128200Y0069463D01*
X0127263Y0070400D01*
X0119196Y0070400D01*
X0119196Y0071618D01*
X0118552Y0072262D01*
X0112916Y0072262D01*
X0112272Y0071618D01*
X0112272Y0065982D01*
X0112479Y0065775D02*
X0111178Y0065775D01*
X0107966Y0065775D02*
X0106966Y0065775D01*
X0106966Y0066773D02*
X0107966Y0066773D01*
X0107966Y0067772D02*
X0106966Y0067772D01*
X0106966Y0068770D02*
X0084985Y0068770D01*
X0084772Y0067772D02*
X0103604Y0067772D01*
X0103604Y0066773D02*
X0084101Y0066773D01*
X0084101Y0065775D02*
X0103755Y0065775D01*
X0104525Y0062560D02*
X0104183Y0062362D01*
X0103904Y0062083D01*
X0103706Y0061741D01*
X0103604Y0061360D01*
X0103604Y0059300D01*
X0106966Y0059300D01*
X0106966Y0058300D01*
X0103604Y0058300D01*
X0103604Y0056240D01*
X0103706Y0055859D01*
X0103904Y0055517D01*
X0104183Y0055237D01*
X0104525Y0055040D01*
X0104906Y0054938D01*
X0106966Y0054938D01*
X0106966Y0058300D01*
X0107966Y0058300D01*
X0107966Y0054938D01*
X0110026Y0054938D01*
X0110407Y0055040D01*
X0110749Y0055237D01*
X0111029Y0055517D01*
X0111226Y0055859D01*
X0111328Y0056240D01*
X0111328Y0058300D01*
X0107966Y0058300D01*
X0107966Y0059300D01*
X0106966Y0059300D01*
X0106966Y0062662D01*
X0104906Y0062662D01*
X0104525Y0062560D01*
X0103729Y0061781D02*
X0098046Y0061781D01*
X0098021Y0062779D02*
X0130358Y0062779D01*
X0131357Y0061781D02*
X0119033Y0061781D01*
X0119196Y0060782D02*
X0132355Y0060782D01*
X0133354Y0059784D02*
X0127879Y0059784D01*
X0128878Y0058785D02*
X0134352Y0058785D01*
X0135340Y0060060D02*
X0126600Y0068800D01*
X0115734Y0068800D01*
X0112272Y0069769D02*
X0111328Y0069769D01*
X0111328Y0070767D02*
X0112272Y0070767D01*
X0112420Y0071766D02*
X0111212Y0071766D01*
X0107966Y0071766D02*
X0106966Y0071766D01*
X0106966Y0070767D02*
X0107966Y0070767D01*
X0119048Y0071766D02*
X0139980Y0071766D01*
X0140000Y0071745D02*
X0140000Y0071199D01*
X0137995Y0071199D01*
X0137350Y0070555D01*
X0137350Y0064525D01*
X0137995Y0063881D01*
X0145205Y0063881D01*
X0145850Y0064525D01*
X0145850Y0070555D01*
X0145205Y0071199D01*
X0143200Y0071199D01*
X0143200Y0071745D01*
X0143791Y0072336D01*
X0144184Y0073286D01*
X0144184Y0074314D01*
X0143791Y0075264D01*
X0143064Y0075991D01*
X0142114Y0076384D01*
X0141086Y0076384D01*
X0140136Y0075991D01*
X0139409Y0075264D01*
X0139016Y0074314D01*
X0139016Y0073286D01*
X0139409Y0072336D01*
X0140000Y0071745D01*
X0139232Y0072764D02*
X0059383Y0072764D01*
X0059383Y0073763D02*
X0065147Y0073763D01*
X0064098Y0074761D02*
X0059383Y0074761D01*
X0059336Y0075760D02*
X0063700Y0075760D01*
X0068053Y0073763D02*
X0139016Y0073763D01*
X0139201Y0074761D02*
X0103566Y0074761D01*
X0103999Y0075760D02*
X0139905Y0075760D01*
X0143295Y0075760D02*
X0154905Y0075760D01*
X0155136Y0075991D02*
X0154409Y0075264D01*
X0154016Y0074314D01*
X0154016Y0073286D01*
X0154409Y0072336D01*
X0155000Y0071745D01*
X0155000Y0071199D01*
X0152995Y0071199D01*
X0152350Y0070555D01*
X0152350Y0064525D01*
X0152995Y0063881D01*
X0160205Y0063881D01*
X0160850Y0064525D01*
X0160850Y0070555D01*
X0160205Y0071199D01*
X0158200Y0071199D01*
X0158200Y0071745D01*
X0158791Y0072336D01*
X0159184Y0073286D01*
X0159184Y0074314D01*
X0158791Y0075264D01*
X0158064Y0075991D01*
X0157114Y0076384D01*
X0156086Y0076384D01*
X0155136Y0075991D01*
X0154201Y0074761D02*
X0143999Y0074761D01*
X0144184Y0073763D02*
X0154016Y0073763D01*
X0154232Y0072764D02*
X0143968Y0072764D01*
X0143220Y0071766D02*
X0154980Y0071766D01*
X0156600Y0073800D02*
X0156600Y0067540D01*
X0160850Y0067772D02*
X0172638Y0067772D01*
X0172638Y0068770D02*
X0160850Y0068770D01*
X0160850Y0069769D02*
X0172638Y0069769D01*
X0172638Y0070767D02*
X0160637Y0070767D01*
X0158220Y0071766D02*
X0171439Y0071766D01*
X0171317Y0072764D02*
X0158968Y0072764D01*
X0159184Y0073763D02*
X0171317Y0073763D01*
X0171317Y0074761D02*
X0158999Y0074761D01*
X0158295Y0075760D02*
X0171364Y0075760D01*
X0174238Y0073800D02*
X0174238Y0056361D01*
X0175001Y0055598D01*
X0170554Y0055790D02*
X0154592Y0055790D01*
X0153594Y0054791D02*
X0170554Y0054791D01*
X0170554Y0056788D02*
X0160593Y0056788D01*
X0160850Y0057787D02*
X0170554Y0057787D01*
X0170554Y0058785D02*
X0160850Y0058785D01*
X0160850Y0059784D02*
X0170554Y0059784D01*
X0170554Y0060782D02*
X0160850Y0060782D01*
X0160850Y0061781D02*
X0170554Y0061781D01*
X0170554Y0062779D02*
X0160850Y0062779D01*
X0160850Y0064776D02*
X0172638Y0064776D01*
X0172638Y0063778D02*
X0133885Y0063778D01*
X0132887Y0064776D02*
X0137350Y0064776D01*
X0137350Y0065775D02*
X0131888Y0065775D01*
X0130890Y0066773D02*
X0137350Y0066773D01*
X0137350Y0067772D02*
X0129891Y0067772D01*
X0128892Y0068770D02*
X0137350Y0068770D01*
X0137350Y0069769D02*
X0127894Y0069769D01*
X0126364Y0066773D02*
X0119196Y0066773D01*
X0118989Y0065775D02*
X0127363Y0065775D01*
X0128361Y0064776D02*
X0084101Y0064776D01*
X0084101Y0063778D02*
X0089086Y0063778D01*
X0088378Y0062779D02*
X0086847Y0062779D01*
X0086847Y0061781D02*
X0088353Y0061781D01*
X0088353Y0060782D02*
X0086847Y0060782D01*
X0086847Y0059784D02*
X0088353Y0059784D01*
X0088353Y0058785D02*
X0086847Y0058785D01*
X0086847Y0057787D02*
X0088353Y0057787D01*
X0088353Y0056788D02*
X0086847Y0056788D01*
X0086847Y0055790D02*
X0092699Y0055790D01*
X0092699Y0056788D02*
X0093699Y0056788D01*
X0093699Y0055790D02*
X0103746Y0055790D01*
X0103604Y0056788D02*
X0098046Y0056788D01*
X0098046Y0057787D02*
X0103604Y0057787D01*
X0106966Y0057787D02*
X0107966Y0057787D01*
X0107966Y0058785D02*
X0112272Y0058785D01*
X0112272Y0057787D02*
X0111328Y0057787D01*
X0111328Y0056788D02*
X0112272Y0056788D01*
X0112464Y0055790D02*
X0111186Y0055790D01*
X0107966Y0055790D02*
X0106966Y0055790D01*
X0106966Y0056788D02*
X0107966Y0056788D01*
X0106966Y0058785D02*
X0098046Y0058785D01*
X0098046Y0059784D02*
X0103604Y0059784D01*
X0103604Y0060782D02*
X0098046Y0060782D01*
X0093699Y0060782D02*
X0092699Y0060782D01*
X0092699Y0059784D02*
X0093699Y0059784D01*
X0093699Y0058785D02*
X0092699Y0058785D01*
X0092699Y0057787D02*
X0093699Y0057787D01*
X0098046Y0054791D02*
X0128346Y0054791D01*
X0127348Y0055790D02*
X0119003Y0055790D01*
X0119196Y0056788D02*
X0126349Y0056788D01*
X0126600Y0058800D02*
X0131600Y0053800D01*
X0150340Y0053800D01*
X0156600Y0060060D01*
X0152350Y0059784D02*
X0145850Y0059784D01*
X0145850Y0060782D02*
X0152350Y0060782D01*
X0152350Y0061781D02*
X0145850Y0061781D01*
X0145850Y0062779D02*
X0152350Y0062779D01*
X0152350Y0064776D02*
X0145850Y0064776D01*
X0145850Y0065775D02*
X0152350Y0065775D01*
X0152350Y0066773D02*
X0145850Y0066773D01*
X0145850Y0067772D02*
X0152350Y0067772D01*
X0152350Y0068770D02*
X0145850Y0068770D01*
X0145850Y0069769D02*
X0152350Y0069769D01*
X0152563Y0070767D02*
X0145637Y0070767D01*
X0141600Y0073800D02*
X0141600Y0067540D01*
X0137563Y0070767D02*
X0119196Y0070767D01*
X0110749Y0062362D02*
X0110407Y0062560D01*
X0110026Y0062662D01*
X0107966Y0062662D01*
X0107966Y0059300D01*
X0111328Y0059300D01*
X0111328Y0061360D01*
X0111226Y0061741D01*
X0111029Y0062083D01*
X0110749Y0062362D01*
X0111203Y0061781D02*
X0112434Y0061781D01*
X0112272Y0060782D02*
X0111328Y0060782D01*
X0111328Y0059784D02*
X0112272Y0059784D01*
X0115734Y0058800D02*
X0126600Y0058800D01*
X0129876Y0057787D02*
X0137350Y0057787D01*
X0137607Y0056788D02*
X0130875Y0056788D01*
X0131873Y0055790D02*
X0150067Y0055790D01*
X0151066Y0056788D02*
X0145593Y0056788D01*
X0145850Y0057787D02*
X0152064Y0057787D01*
X0152350Y0058785D02*
X0145850Y0058785D01*
X0141600Y0060060D02*
X0135340Y0060060D01*
X0135882Y0061781D02*
X0137350Y0061781D01*
X0137350Y0062779D02*
X0134884Y0062779D01*
X0129360Y0063778D02*
X0097312Y0063778D01*
X0093699Y0063778D02*
X0092699Y0063778D01*
X0092699Y0062779D02*
X0093699Y0062779D01*
X0093699Y0061781D02*
X0092699Y0061781D01*
X0080701Y0063778D02*
X0058089Y0063778D01*
X0059108Y0064776D02*
X0080701Y0064776D01*
X0080701Y0065775D02*
X0059500Y0065775D01*
X0059500Y0066773D02*
X0080701Y0066773D01*
X0077954Y0062779D02*
X0076046Y0062779D01*
X0076046Y0061781D02*
X0077954Y0061781D01*
X0077954Y0060782D02*
X0076046Y0060782D01*
X0076046Y0059784D02*
X0077954Y0059784D01*
X0077954Y0058785D02*
X0076046Y0058785D01*
X0076046Y0057787D02*
X0077954Y0057787D01*
X0077954Y0056788D02*
X0076046Y0056788D01*
X0076046Y0055790D02*
X0077954Y0055790D01*
X0077954Y0054791D02*
X0076046Y0054791D01*
X0067154Y0054791D02*
X0065246Y0054791D01*
X0065246Y0055790D02*
X0067154Y0055790D01*
X0067154Y0056788D02*
X0065246Y0056788D01*
X0065246Y0057787D02*
X0067154Y0057787D01*
X0067154Y0058785D02*
X0065246Y0058785D01*
X0065246Y0059784D02*
X0067154Y0059784D01*
X0067154Y0060782D02*
X0065246Y0060782D01*
X0065246Y0061781D02*
X0067154Y0061781D01*
X0067154Y0062779D02*
X0065246Y0062779D01*
X0086847Y0054791D02*
X0088353Y0054791D01*
X0106966Y0059784D02*
X0107966Y0059784D01*
X0107966Y0060782D02*
X0106966Y0060782D01*
X0106966Y0061781D02*
X0107966Y0061781D01*
X0103999Y0076758D02*
X0184900Y0076758D01*
X0184900Y0075760D02*
X0181836Y0075760D01*
X0181883Y0074761D02*
X0184900Y0074761D01*
X0184900Y0073763D02*
X0181883Y0073763D01*
X0182261Y0072764D02*
X0184900Y0072764D01*
X0184900Y0071766D02*
X0183200Y0071766D01*
X0183200Y0070767D02*
X0184900Y0070767D01*
X0184900Y0069769D02*
X0183200Y0069769D01*
X0183214Y0068770D02*
X0184900Y0068770D01*
X0184900Y0067772D02*
X0184129Y0067772D01*
X0184500Y0066773D02*
X0184900Y0066773D01*
X0184900Y0065775D02*
X0184500Y0065775D01*
X0184108Y0064776D02*
X0184900Y0064776D01*
X0184900Y0063778D02*
X0183089Y0063778D01*
X0181600Y0066300D02*
X0181600Y0071162D01*
X0178962Y0073800D01*
X0188100Y0073763D02*
X0190147Y0073763D01*
X0189957Y0073841D02*
X0191023Y0073400D01*
X0192177Y0073400D01*
X0193243Y0073841D01*
X0194058Y0074657D01*
X0194076Y0074700D01*
X0194982Y0074700D01*
X0195237Y0074573D01*
X0195619Y0074700D01*
X0196023Y0074700D01*
X0196224Y0074902D01*
X0199201Y0075894D01*
X0199201Y0075195D01*
X0199845Y0074550D01*
X0205875Y0074550D01*
X0206519Y0075195D01*
X0206519Y0082300D01*
X0206681Y0082300D01*
X0206681Y0075195D01*
X0207325Y0074550D01*
X0213355Y0074550D01*
X0213999Y0075195D01*
X0213999Y0077500D01*
X0214557Y0076941D01*
X0215623Y0076500D01*
X0216777Y0076500D01*
X0217843Y0076941D01*
X0218658Y0077757D01*
X0283394Y0077757D01*
X0283900Y0078263D02*
X0278920Y0073282D01*
X0278877Y0073300D01*
X0277723Y0073300D01*
X0276657Y0072858D01*
X0275841Y0072043D01*
X0275408Y0070996D01*
X0275205Y0071199D01*
X0273200Y0071199D01*
X0273200Y0071745D01*
X0273791Y0072336D01*
X0274184Y0073286D01*
X0274184Y0074314D01*
X0273791Y0075264D01*
X0273064Y0075991D01*
X0272114Y0076384D01*
X0271086Y0076384D01*
X0270136Y0075991D01*
X0269409Y0075264D01*
X0269016Y0074314D01*
X0269016Y0073286D01*
X0269409Y0072336D01*
X0270000Y0071745D01*
X0270000Y0071199D01*
X0267995Y0071199D01*
X0267350Y0070555D01*
X0267350Y0064525D01*
X0267995Y0063881D01*
X0275205Y0063881D01*
X0275850Y0064525D01*
X0275850Y0068749D01*
X0276657Y0067941D01*
X0277723Y0067500D01*
X0278877Y0067500D01*
X0279943Y0067941D01*
X0280758Y0068757D01*
X0281200Y0069823D01*
X0281200Y0070977D01*
X0281182Y0071020D01*
X0284016Y0073853D01*
X0284016Y0073286D01*
X0284409Y0072336D01*
X0285000Y0071745D01*
X0285000Y0071199D01*
X0282995Y0071199D01*
X0282350Y0070555D01*
X0282350Y0064525D01*
X0282995Y0063881D01*
X0290205Y0063881D01*
X0290850Y0064525D01*
X0290850Y0070555D01*
X0290205Y0071199D01*
X0288200Y0071199D01*
X0288200Y0071745D01*
X0288791Y0072336D01*
X0289184Y0073286D01*
X0289184Y0074314D01*
X0288791Y0075264D01*
X0288064Y0075991D01*
X0288042Y0076000D01*
X0295158Y0076000D01*
X0295136Y0075991D01*
X0294409Y0075264D01*
X0294016Y0074314D01*
X0294016Y0073286D01*
X0294409Y0072336D01*
X0295136Y0071609D01*
X0296086Y0071216D01*
X0296922Y0071216D01*
X0306353Y0061784D01*
X0306353Y0053800D01*
X0304847Y0053800D01*
X0304847Y0055098D01*
X0300501Y0055098D01*
X0300501Y0056098D01*
X0304847Y0056098D01*
X0304847Y0062686D01*
X0304745Y0063067D01*
X0304548Y0063409D01*
X0304268Y0063688D01*
X0303926Y0063886D01*
X0303545Y0063988D01*
X0300501Y0063988D01*
X0300501Y0056098D01*
X0299501Y0056098D01*
X0299501Y0055098D01*
X0295154Y0055098D01*
X0295154Y0053800D01*
X0283863Y0053800D01*
X0286464Y0056401D01*
X0290205Y0056401D01*
X0290850Y0057045D01*
X0290850Y0063075D01*
X0290205Y0063719D01*
X0282995Y0063719D01*
X0282350Y0063075D01*
X0282350Y0057045D01*
X0282466Y0056929D01*
X0280937Y0055400D01*
X0262263Y0055400D01*
X0258200Y0059463D01*
X0257263Y0060400D01*
X0249196Y0060400D01*
X0249196Y0061618D01*
X0248552Y0062262D01*
X0242916Y0062262D01*
X0242272Y0061618D01*
X0242272Y0055982D01*
X0242916Y0055338D01*
X0248552Y0055338D01*
X0249196Y0055982D01*
X0249196Y0057200D01*
X0255937Y0057200D01*
X0259337Y0053800D01*
X0223046Y0053800D01*
X0223046Y0055098D01*
X0218699Y0055098D01*
X0218699Y0056098D01*
X0223046Y0056098D01*
X0223046Y0062686D01*
X0222943Y0063067D01*
X0222746Y0063409D01*
X0222467Y0063688D01*
X0222125Y0063886D01*
X0221743Y0063988D01*
X0218699Y0063988D01*
X0218699Y0056098D01*
X0217699Y0056098D01*
X0217699Y0055098D01*
X0213353Y0055098D01*
X0213353Y0053800D01*
X0211847Y0053800D01*
X0211847Y0062944D01*
X0211203Y0063588D01*
X0209001Y0063588D01*
X0209001Y0063938D01*
X0216278Y0071216D01*
X0217114Y0071216D01*
X0218064Y0071609D01*
X0218791Y0072336D01*
X0219184Y0073286D01*
X0219184Y0074314D01*
X0218791Y0075264D01*
X0218064Y0075991D01*
X0217114Y0076384D01*
X0216086Y0076384D01*
X0215136Y0075991D01*
X0214409Y0075264D01*
X0214016Y0074314D01*
X0214016Y0073478D01*
X0211000Y0070463D01*
X0211000Y0070977D01*
X0210558Y0072043D01*
X0209743Y0072858D01*
X0208677Y0073300D01*
X0207523Y0073300D01*
X0206457Y0072858D01*
X0205641Y0072043D01*
X0205200Y0070977D01*
X0205200Y0069823D01*
X0205218Y0069780D01*
X0199026Y0063589D01*
X0192798Y0063589D01*
X0192154Y0062945D01*
X0192154Y0053800D01*
X0190246Y0053800D01*
X0190246Y0062944D01*
X0189601Y0063588D01*
X0188100Y0063588D01*
X0188100Y0076037D01*
X0188700Y0076637D01*
X0188700Y0075723D01*
X0189141Y0074657D01*
X0189957Y0073841D01*
X0189098Y0074761D02*
X0188100Y0074761D01*
X0188100Y0075760D02*
X0188700Y0075760D01*
X0186500Y0076700D02*
X0193700Y0083900D01*
X0306200Y0083900D01*
X0332300Y0057800D01*
X0332300Y0056000D01*
X0332401Y0055598D01*
X0336847Y0055790D02*
X0338753Y0055790D01*
X0338753Y0056788D02*
X0336847Y0056788D01*
X0336847Y0057787D02*
X0338753Y0057787D01*
X0338753Y0058785D02*
X0336847Y0058785D01*
X0336847Y0059784D02*
X0338753Y0059784D01*
X0338753Y0060782D02*
X0336847Y0060782D01*
X0336847Y0061781D02*
X0338753Y0061781D01*
X0338753Y0062779D02*
X0336847Y0062779D01*
X0336847Y0062944D02*
X0336203Y0063588D01*
X0328775Y0063588D01*
X0306863Y0085500D01*
X0274063Y0085500D01*
X0282800Y0094237D01*
X0284837Y0092200D01*
X0297263Y0092200D01*
X0298000Y0092937D01*
X0298000Y0092521D01*
X0302800Y0092521D01*
X0307600Y0092521D01*
X0307600Y0093618D01*
X0307556Y0093781D01*
X0315437Y0085900D01*
X0329863Y0085900D01*
X0330800Y0086837D01*
X0331700Y0087737D01*
X0331700Y0096018D01*
X0331953Y0095950D01*
X0332600Y0095950D01*
X0333247Y0095950D01*
X0333600Y0096044D01*
X0333953Y0095950D01*
X0334600Y0095950D01*
X0335247Y0095950D01*
X0335629Y0096052D01*
X0335971Y0096250D01*
X0336071Y0096350D01*
X0337506Y0096350D01*
X0337600Y0096444D01*
X0337694Y0096350D01*
X0339506Y0096350D01*
X0339600Y0096444D01*
X0339694Y0096350D01*
X0341506Y0096350D01*
X0342150Y0096994D01*
X0342150Y0103506D01*
X0341506Y0104150D01*
X0339694Y0104150D01*
X0339600Y0104056D01*
X0339506Y0104150D01*
X0337694Y0104150D01*
X0337600Y0104056D01*
X0337506Y0104150D01*
X0336071Y0104150D01*
X0335971Y0104250D01*
X0335629Y0104448D01*
X0335247Y0104550D01*
X0334600Y0104550D01*
X0334600Y0100250D01*
X0334600Y0100250D01*
X0334600Y0100250D01*
X0332600Y0100250D01*
X0332600Y0100250D01*
X0332650Y0100250D01*
X0334600Y0100250D01*
X0334600Y0104550D01*
X0333953Y0104550D01*
X0333600Y0104456D01*
X0333536Y0104473D01*
X0340200Y0111137D01*
X0340200Y0113450D01*
X0341506Y0113450D01*
X0342150Y0114094D01*
X0342150Y0116637D01*
X0342713Y0117200D01*
X0344545Y0117200D01*
X0345136Y0116609D01*
X0346086Y0116216D01*
X0347114Y0116216D01*
X0348064Y0116609D01*
X0348791Y0117336D01*
X0349184Y0118286D01*
X0349184Y0119314D01*
X0348791Y0120264D01*
X0348064Y0120991D01*
X0347114Y0121384D01*
X0346086Y0121384D01*
X0345136Y0120991D01*
X0344545Y0120400D01*
X0342150Y0120400D01*
X0342150Y0120606D01*
X0341506Y0121250D01*
X0339694Y0121250D01*
X0339600Y0121156D01*
X0339506Y0121250D01*
X0338200Y0121250D01*
X0338200Y0123137D01*
X0342263Y0127200D01*
X0345937Y0127200D01*
X0350000Y0123137D01*
X0350000Y0074463D01*
X0342536Y0066999D01*
X0341599Y0066062D01*
X0341599Y0063588D01*
X0339397Y0063588D01*
X0338753Y0062944D01*
X0338753Y0053800D01*
X0336847Y0053800D01*
X0336847Y0062944D01*
X0341599Y0063778D02*
X0328585Y0063778D01*
X0327587Y0064776D02*
X0341599Y0064776D01*
X0341599Y0065775D02*
X0326588Y0065775D01*
X0325590Y0066773D02*
X0342310Y0066773D01*
X0343309Y0067772D02*
X0324591Y0067772D01*
X0323592Y0068770D02*
X0344307Y0068770D01*
X0345306Y0069769D02*
X0322594Y0069769D01*
X0321595Y0070767D02*
X0346305Y0070767D01*
X0347303Y0071766D02*
X0320597Y0071766D01*
X0319598Y0072764D02*
X0348302Y0072764D01*
X0349300Y0073763D02*
X0318600Y0073763D01*
X0317601Y0074761D02*
X0350000Y0074761D01*
X0350000Y0075760D02*
X0316603Y0075760D01*
X0315604Y0076758D02*
X0350000Y0076758D01*
X0350000Y0077757D02*
X0314606Y0077757D01*
X0313607Y0078755D02*
X0350000Y0078755D01*
X0350000Y0079754D02*
X0312609Y0079754D01*
X0311610Y0080752D02*
X0350000Y0080752D01*
X0350000Y0081751D02*
X0310612Y0081751D01*
X0309613Y0082749D02*
X0350000Y0082749D01*
X0350000Y0083748D02*
X0308615Y0083748D01*
X0307616Y0084746D02*
X0350000Y0084746D01*
X0350000Y0085745D02*
X0274308Y0085745D01*
X0275306Y0086743D02*
X0314594Y0086743D01*
X0313595Y0087742D02*
X0306815Y0087742D01*
X0306679Y0087664D02*
X0307021Y0087861D01*
X0307300Y0088140D01*
X0307498Y0088482D01*
X0307600Y0088864D01*
X0307600Y0089961D01*
X0302800Y0089961D01*
X0302800Y0087561D01*
X0306297Y0087561D01*
X0306679Y0087664D01*
X0307567Y0088740D02*
X0312597Y0088740D01*
X0311598Y0089739D02*
X0307600Y0089739D01*
X0307600Y0089961D02*
X0307600Y0091059D01*
X0307551Y0091241D01*
X0307600Y0091423D01*
X0307600Y0092520D01*
X0302800Y0092520D01*
X0302800Y0089962D01*
X0302800Y0090120D01*
X0302800Y0092520D01*
X0302800Y0092520D01*
X0302800Y0092521D01*
X0302800Y0092520D01*
X0298000Y0092520D01*
X0298000Y0091423D01*
X0298049Y0091241D01*
X0298000Y0091059D01*
X0298000Y0089961D01*
X0298000Y0088864D01*
X0298102Y0088482D01*
X0298300Y0088140D01*
X0298579Y0087861D01*
X0298921Y0087664D01*
X0299303Y0087561D01*
X0302800Y0087561D01*
X0302800Y0089961D01*
X0302800Y0089961D01*
X0302800Y0089961D01*
X0298000Y0089961D01*
X0302800Y0089961D01*
X0302800Y0089961D01*
X0307600Y0089961D01*
X0307600Y0090737D02*
X0310600Y0090737D01*
X0309601Y0091736D02*
X0307600Y0091736D01*
X0307600Y0092734D02*
X0308603Y0092734D01*
X0307604Y0093733D02*
X0307569Y0093733D01*
X0302800Y0095080D02*
X0297880Y0095080D01*
X0296600Y0093800D01*
X0285500Y0093800D01*
X0284303Y0092734D02*
X0281297Y0092734D01*
X0280299Y0091736D02*
X0298000Y0091736D01*
X0298000Y0092734D02*
X0297797Y0092734D01*
X0302800Y0091736D02*
X0302800Y0091736D01*
X0302800Y0090737D02*
X0302800Y0090737D01*
X0302800Y0089962D02*
X0302800Y0089962D01*
X0302800Y0089739D02*
X0302800Y0089739D01*
X0302800Y0088740D02*
X0302800Y0088740D01*
X0302800Y0087742D02*
X0302800Y0087742D01*
X0298785Y0087742D02*
X0276305Y0087742D01*
X0277303Y0088740D02*
X0298033Y0088740D01*
X0298000Y0089739D02*
X0278302Y0089739D01*
X0279300Y0090737D02*
X0298000Y0090737D01*
X0283304Y0093733D02*
X0282296Y0093733D01*
X0277400Y0101000D02*
X0281900Y0105500D01*
X0301600Y0105500D01*
X0277400Y0101000D02*
X0237800Y0101000D01*
X0235190Y0099724D02*
X0213283Y0099724D01*
X0213447Y0099656D02*
X0212738Y0099950D01*
X0211984Y0100100D01*
X0211900Y0100100D01*
X0211900Y0094100D01*
X0211300Y0094100D01*
X0211300Y0100100D01*
X0211216Y0100100D01*
X0210462Y0099950D01*
X0209753Y0099656D01*
X0209114Y0099229D01*
X0208571Y0098686D01*
X0208144Y0098047D01*
X0207850Y0097338D01*
X0207700Y0096584D01*
X0207700Y0094100D01*
X0211300Y0094100D01*
X0211300Y0093500D01*
X0207700Y0093500D01*
X0207700Y0091016D01*
X0207850Y0090262D01*
X0208144Y0089553D01*
X0208571Y0088914D01*
X0209114Y0088371D01*
X0209369Y0088200D01*
X0203020Y0088200D01*
X0203583Y0088433D01*
X0204567Y0089417D01*
X0205100Y0090704D01*
X0205100Y0096896D01*
X0204567Y0098183D01*
X0203583Y0099167D01*
X0202296Y0099700D01*
X0200904Y0099700D01*
X0200646Y0099593D01*
X0207553Y0106500D01*
X0212553Y0106500D01*
X0213900Y0107847D01*
X0213900Y0108247D01*
X0219387Y0102760D01*
X0235459Y0102760D01*
X0235341Y0102643D01*
X0234900Y0101577D01*
X0234900Y0100423D01*
X0235341Y0099357D01*
X0236157Y0098541D01*
X0237223Y0098100D01*
X0238377Y0098100D01*
X0238673Y0098223D01*
X0238633Y0098183D01*
X0238100Y0096896D01*
X0238100Y0090704D01*
X0238633Y0089417D01*
X0239617Y0088433D01*
X0240180Y0088200D01*
X0233020Y0088200D01*
X0233583Y0088433D01*
X0234567Y0089417D01*
X0235100Y0090704D01*
X0235100Y0096896D01*
X0234567Y0098183D01*
X0233583Y0099167D01*
X0232296Y0099700D01*
X0230904Y0099700D01*
X0229617Y0099167D01*
X0228633Y0098183D01*
X0228100Y0096896D01*
X0228100Y0090704D01*
X0228633Y0089417D01*
X0229617Y0088433D01*
X0230180Y0088200D01*
X0223020Y0088200D01*
X0223583Y0088433D01*
X0224567Y0089417D01*
X0225100Y0090704D01*
X0225100Y0096896D01*
X0224567Y0098183D01*
X0223583Y0099167D01*
X0222296Y0099700D01*
X0220904Y0099700D01*
X0219617Y0099167D01*
X0218633Y0098183D01*
X0218100Y0096896D01*
X0218100Y0090704D01*
X0218633Y0089417D01*
X0219617Y0088433D01*
X0220180Y0088200D01*
X0213831Y0088200D01*
X0214086Y0088371D01*
X0214629Y0088914D01*
X0215056Y0089553D01*
X0215350Y0090262D01*
X0215500Y0091016D01*
X0215500Y0093500D01*
X0211900Y0093500D01*
X0211900Y0094100D01*
X0215500Y0094100D01*
X0215500Y0096584D01*
X0215350Y0097338D01*
X0215056Y0098047D01*
X0214629Y0098686D01*
X0214086Y0099229D01*
X0213447Y0099656D01*
X0214590Y0098726D02*
X0219176Y0098726D01*
X0218444Y0097727D02*
X0215189Y0097727D01*
X0215471Y0096729D02*
X0218100Y0096729D01*
X0218100Y0095730D02*
X0215500Y0095730D01*
X0215500Y0094732D02*
X0218100Y0094732D01*
X0218100Y0093733D02*
X0211900Y0093733D01*
X0211300Y0093733D02*
X0205100Y0093733D01*
X0205100Y0092734D02*
X0207700Y0092734D01*
X0207700Y0091736D02*
X0205100Y0091736D01*
X0205100Y0090737D02*
X0207755Y0090737D01*
X0208067Y0089739D02*
X0204700Y0089739D01*
X0203890Y0088740D02*
X0208744Y0088740D01*
X0214456Y0088740D02*
X0219310Y0088740D01*
X0218500Y0089739D02*
X0215133Y0089739D01*
X0215445Y0090737D02*
X0218100Y0090737D01*
X0218100Y0091736D02*
X0215500Y0091736D01*
X0215500Y0092734D02*
X0218100Y0092734D01*
X0211900Y0094732D02*
X0211300Y0094732D01*
X0211300Y0095730D02*
X0211900Y0095730D01*
X0211900Y0096729D02*
X0211300Y0096729D01*
X0211300Y0097727D02*
X0211900Y0097727D01*
X0211900Y0098726D02*
X0211300Y0098726D01*
X0211300Y0099724D02*
X0211900Y0099724D01*
X0209917Y0099724D02*
X0200777Y0099724D01*
X0201775Y0100723D02*
X0234900Y0100723D01*
X0234960Y0101721D02*
X0202774Y0101721D01*
X0203772Y0102720D02*
X0235418Y0102720D01*
X0235973Y0098726D02*
X0234024Y0098726D01*
X0234756Y0097727D02*
X0238444Y0097727D01*
X0238100Y0096729D02*
X0235100Y0096729D01*
X0235100Y0095730D02*
X0238100Y0095730D01*
X0238100Y0094732D02*
X0235100Y0094732D01*
X0235100Y0093733D02*
X0238100Y0093733D01*
X0238100Y0092734D02*
X0235100Y0092734D01*
X0235100Y0091736D02*
X0238100Y0091736D01*
X0238100Y0090737D02*
X0235100Y0090737D01*
X0234700Y0089739D02*
X0238500Y0089739D01*
X0239310Y0088740D02*
X0233890Y0088740D01*
X0229310Y0088740D02*
X0223890Y0088740D01*
X0224700Y0089739D02*
X0228500Y0089739D01*
X0228100Y0090737D02*
X0225100Y0090737D01*
X0225100Y0091736D02*
X0228100Y0091736D01*
X0228100Y0092734D02*
X0225100Y0092734D01*
X0225100Y0093733D02*
X0228100Y0093733D01*
X0228100Y0094732D02*
X0225100Y0094732D01*
X0225100Y0095730D02*
X0228100Y0095730D01*
X0228100Y0096729D02*
X0225100Y0096729D01*
X0224756Y0097727D02*
X0228444Y0097727D01*
X0229176Y0098726D02*
X0224024Y0098726D01*
X0218429Y0103718D02*
X0204771Y0103718D01*
X0205769Y0104717D02*
X0217431Y0104717D01*
X0216432Y0105715D02*
X0206768Y0105715D01*
X0212766Y0106714D02*
X0215434Y0106714D01*
X0214435Y0107712D02*
X0213765Y0107712D01*
X0204257Y0109709D02*
X0182509Y0109709D01*
X0183508Y0110708D02*
X0205255Y0110708D01*
X0203553Y0111706D02*
X0184506Y0111706D01*
X0185505Y0112705D02*
X0203417Y0112705D01*
X0203417Y0114702D02*
X0187502Y0114702D01*
X0188500Y0115700D02*
X0203483Y0115700D01*
X0204503Y0116699D02*
X0189499Y0116699D01*
X0190497Y0117697D02*
X0200348Y0117697D01*
X0201300Y0117697D02*
X0201900Y0117697D01*
X0202852Y0117697D02*
X0209300Y0117697D01*
X0209300Y0116699D02*
X0208972Y0116699D01*
X0206966Y0116699D02*
X0206509Y0116699D01*
X0206509Y0115700D02*
X0206966Y0115700D01*
X0206966Y0114702D02*
X0206509Y0114702D01*
X0206738Y0113800D02*
X0206738Y0118662D01*
X0201600Y0123800D01*
X0201900Y0123688D02*
X0208100Y0123688D01*
X0208100Y0122690D02*
X0205500Y0122690D01*
X0205500Y0121691D02*
X0208100Y0121691D01*
X0208105Y0120693D02*
X0205436Y0120693D01*
X0205115Y0119694D02*
X0208518Y0119694D01*
X0209300Y0118696D02*
X0204411Y0118696D01*
X0201900Y0118696D02*
X0201300Y0118696D01*
X0201300Y0119694D02*
X0201900Y0119694D01*
X0201900Y0120693D02*
X0201300Y0120693D01*
X0201300Y0121691D02*
X0201900Y0121691D01*
X0201900Y0122690D02*
X0201300Y0122690D01*
X0201300Y0123688D02*
X0196488Y0123688D01*
X0195490Y0122690D02*
X0197700Y0122690D01*
X0197700Y0121691D02*
X0195100Y0121691D01*
X0195095Y0120693D02*
X0197764Y0120693D01*
X0198085Y0119694D02*
X0194682Y0119694D01*
X0193846Y0118696D02*
X0198789Y0118696D01*
X0206509Y0113703D02*
X0186503Y0113703D01*
X0197487Y0124687D02*
X0197700Y0124687D01*
X0205500Y0124687D02*
X0208100Y0124687D01*
X0208100Y0125685D02*
X0205500Y0125685D01*
X0205480Y0126684D02*
X0208100Y0126684D01*
X0208426Y0127682D02*
X0205207Y0127682D01*
X0204633Y0128681D02*
X0209131Y0128681D01*
X0210854Y0129679D02*
X0203391Y0129679D01*
X0203478Y0130678D02*
X0212459Y0130678D01*
X0212346Y0129679D02*
X0213458Y0129679D01*
X0214069Y0128681D02*
X0214456Y0128681D01*
X0214774Y0127682D02*
X0215455Y0127682D01*
X0215100Y0126684D02*
X0216453Y0126684D01*
X0217452Y0125685D02*
X0215100Y0125685D01*
X0215100Y0124687D02*
X0218100Y0124687D01*
X0218100Y0123688D02*
X0215100Y0123688D01*
X0215100Y0122690D02*
X0218100Y0122690D01*
X0218100Y0121691D02*
X0215100Y0121691D01*
X0215095Y0120693D02*
X0218105Y0120693D01*
X0218518Y0119694D02*
X0214682Y0119694D01*
X0225100Y0124687D02*
X0228100Y0124687D01*
X0228100Y0125685D02*
X0225100Y0125685D01*
X0225100Y0126684D02*
X0228100Y0126684D01*
X0228426Y0127682D02*
X0224774Y0127682D01*
X0224069Y0128681D02*
X0229131Y0128681D01*
X0230854Y0129679D02*
X0222346Y0129679D01*
X0220854Y0129679D02*
X0217983Y0129679D01*
X0218982Y0128681D02*
X0219131Y0128681D01*
X0216985Y0130678D02*
X0256215Y0130678D01*
X0255217Y0129679D02*
X0252346Y0129679D01*
X0250854Y0129679D02*
X0242346Y0129679D01*
X0242296Y0129700D02*
X0240904Y0129700D01*
X0239617Y0129167D01*
X0238633Y0128183D01*
X0238100Y0126896D01*
X0238100Y0120704D01*
X0238633Y0119417D01*
X0239617Y0118433D01*
X0240904Y0117900D01*
X0242296Y0117900D01*
X0243583Y0118433D01*
X0244567Y0119417D01*
X0245100Y0120704D01*
X0245100Y0126896D01*
X0244567Y0128183D01*
X0243583Y0129167D01*
X0242296Y0129700D01*
X0240854Y0129679D02*
X0232346Y0129679D01*
X0234069Y0128681D02*
X0239131Y0128681D01*
X0238426Y0127682D02*
X0234774Y0127682D01*
X0235100Y0126684D02*
X0238100Y0126684D01*
X0238100Y0125685D02*
X0235100Y0125685D01*
X0235100Y0124687D02*
X0238100Y0124687D01*
X0238100Y0123688D02*
X0235100Y0123688D01*
X0235100Y0122690D02*
X0238100Y0122690D01*
X0238100Y0121691D02*
X0235100Y0121691D01*
X0235095Y0120693D02*
X0238105Y0120693D01*
X0238518Y0119694D02*
X0234682Y0119694D01*
X0233846Y0118696D02*
X0239354Y0118696D01*
X0243846Y0118696D02*
X0249354Y0118696D01*
X0248518Y0119694D02*
X0244682Y0119694D01*
X0245095Y0120693D02*
X0248105Y0120693D01*
X0248100Y0121691D02*
X0245100Y0121691D01*
X0245100Y0122690D02*
X0248100Y0122690D01*
X0248100Y0123688D02*
X0245100Y0123688D01*
X0245100Y0124687D02*
X0248100Y0124687D01*
X0248100Y0125685D02*
X0245100Y0125685D01*
X0245100Y0126684D02*
X0248100Y0126684D01*
X0248426Y0127682D02*
X0244774Y0127682D01*
X0244069Y0128681D02*
X0249131Y0128681D01*
X0254069Y0128681D02*
X0254218Y0128681D01*
X0256747Y0126684D02*
X0258100Y0126684D01*
X0258100Y0126896D02*
X0258100Y0120704D01*
X0258633Y0119417D01*
X0259617Y0118433D01*
X0260904Y0117900D01*
X0262296Y0117900D01*
X0263583Y0118433D01*
X0264567Y0119417D01*
X0265100Y0120704D01*
X0265100Y0126896D01*
X0264567Y0128183D01*
X0263583Y0129167D01*
X0262296Y0129700D01*
X0260904Y0129700D01*
X0259617Y0129167D01*
X0258633Y0128183D01*
X0258100Y0126896D01*
X0258426Y0127682D02*
X0257745Y0127682D01*
X0258744Y0128681D02*
X0259131Y0128681D01*
X0259742Y0129679D02*
X0260854Y0129679D01*
X0260741Y0130678D02*
X0317009Y0130678D01*
X0316011Y0131676D02*
X0261739Y0131676D01*
X0262346Y0129679D02*
X0270854Y0129679D01*
X0272346Y0129679D02*
X0318008Y0129679D01*
X0319006Y0128681D02*
X0274069Y0128681D01*
X0274774Y0127682D02*
X0320005Y0127682D01*
X0321003Y0126684D02*
X0275100Y0126684D01*
X0275100Y0125685D02*
X0322002Y0125685D01*
X0323000Y0124687D02*
X0275100Y0124687D01*
X0275100Y0123688D02*
X0323999Y0123688D01*
X0324997Y0122690D02*
X0275100Y0122690D01*
X0271600Y0123800D02*
X0271600Y0112540D01*
X0269354Y0118696D02*
X0263846Y0118696D01*
X0264682Y0119694D02*
X0268518Y0119694D01*
X0268105Y0120693D02*
X0265095Y0120693D01*
X0265100Y0121691D02*
X0268100Y0121691D01*
X0268100Y0122690D02*
X0265100Y0122690D01*
X0265100Y0123688D02*
X0268100Y0123688D01*
X0268100Y0124687D02*
X0265100Y0124687D01*
X0265100Y0125685D02*
X0268100Y0125685D01*
X0268100Y0126684D02*
X0265100Y0126684D01*
X0264774Y0127682D02*
X0268426Y0127682D01*
X0269131Y0128681D02*
X0264069Y0128681D01*
X0258100Y0125685D02*
X0255748Y0125685D01*
X0255100Y0124687D02*
X0258100Y0124687D01*
X0258100Y0123688D02*
X0255100Y0123688D01*
X0255100Y0122690D02*
X0258100Y0122690D01*
X0258100Y0121691D02*
X0255100Y0121691D01*
X0255095Y0120693D02*
X0258105Y0120693D01*
X0258518Y0119694D02*
X0254682Y0119694D01*
X0253846Y0118696D02*
X0259354Y0118696D01*
X0251600Y0123800D02*
X0261600Y0133800D01*
X0316150Y0133800D01*
X0332600Y0117350D01*
X0334600Y0117350D02*
X0334600Y0111800D01*
X0338600Y0111800D02*
X0330100Y0103300D01*
X0333779Y0104717D02*
X0350000Y0104717D01*
X0350000Y0105715D02*
X0334778Y0105715D01*
X0335776Y0106714D02*
X0350000Y0106714D01*
X0350000Y0107712D02*
X0336775Y0107712D01*
X0337773Y0108711D02*
X0350000Y0108711D01*
X0350000Y0109709D02*
X0338772Y0109709D01*
X0339770Y0110708D02*
X0350000Y0110708D01*
X0350000Y0111706D02*
X0340200Y0111706D01*
X0340200Y0112705D02*
X0350000Y0112705D01*
X0350000Y0113703D02*
X0341759Y0113703D01*
X0342150Y0114702D02*
X0350000Y0114702D01*
X0350000Y0115700D02*
X0342150Y0115700D01*
X0342212Y0116699D02*
X0345047Y0116699D01*
X0346600Y0118800D02*
X0342050Y0118800D01*
X0340600Y0117350D01*
X0338600Y0117350D02*
X0338600Y0111800D01*
X0331441Y0113703D02*
X0321321Y0113703D01*
X0321061Y0114702D02*
X0331050Y0114702D01*
X0331050Y0115700D02*
X0320404Y0115700D01*
X0330521Y0121691D02*
X0335000Y0121691D01*
X0335000Y0121250D02*
X0333694Y0121250D01*
X0333600Y0121156D01*
X0333506Y0121250D01*
X0331694Y0121250D01*
X0331329Y0120884D01*
X0318413Y0133800D01*
X0398596Y0133800D01*
X0398596Y0133158D01*
X0399565Y0133158D01*
X0399565Y0133800D01*
X0416600Y0133800D01*
X0416600Y0120913D01*
X0416220Y0121436D01*
X0415614Y0122042D01*
X0414922Y0122545D01*
X0414160Y0122933D01*
X0413346Y0123198D01*
X0412557Y0123323D01*
X0412557Y0114442D01*
X0411588Y0114442D01*
X0411588Y0123323D01*
X0410799Y0123198D01*
X0409985Y0122933D01*
X0409223Y0122545D01*
X0408530Y0122042D01*
X0407925Y0121436D01*
X0407422Y0120744D01*
X0407034Y0119982D01*
X0406769Y0119168D01*
X0406635Y0118322D01*
X0406635Y0114442D01*
X0411588Y0114442D01*
X0411588Y0113473D01*
X0412557Y0113473D01*
X0412557Y0104592D01*
X0413346Y0104717D01*
X0414160Y0104982D01*
X0414922Y0105370D01*
X0415614Y0105873D01*
X0416220Y0106478D01*
X0416600Y0107002D01*
X0416600Y0101248D01*
X0416524Y0101063D01*
X0416524Y0099686D01*
X0416600Y0099502D01*
X0416600Y0053800D01*
X0411023Y0053800D01*
X0411424Y0054068D01*
X0411962Y0054606D01*
X0412385Y0055238D01*
X0412676Y0055941D01*
X0412824Y0056687D01*
X0412824Y0056780D01*
X0406887Y0056780D01*
X0406887Y0057355D01*
X0406313Y0057355D01*
X0406313Y0060930D01*
X0403857Y0060930D01*
X0403111Y0060781D01*
X0402408Y0060490D01*
X0401776Y0060068D01*
X0401238Y0059530D01*
X0400815Y0058897D01*
X0400524Y0058194D01*
X0400376Y0057448D01*
X0400376Y0057355D01*
X0406313Y0057355D01*
X0406313Y0056780D01*
X0400376Y0056780D01*
X0400376Y0056687D01*
X0400524Y0055941D01*
X0400815Y0055238D01*
X0401238Y0054606D01*
X0401776Y0054068D01*
X0402177Y0053800D01*
X0347646Y0053800D01*
X0347646Y0062944D01*
X0347001Y0063588D01*
X0344799Y0063588D01*
X0344799Y0064736D01*
X0353200Y0073137D01*
X0353200Y0124463D01*
X0352263Y0125400D01*
X0347263Y0130400D01*
X0340937Y0130400D01*
X0340000Y0129463D01*
X0335000Y0124463D01*
X0335000Y0121250D01*
X0335000Y0122690D02*
X0329523Y0122690D01*
X0328524Y0123688D02*
X0335000Y0123688D01*
X0335224Y0124687D02*
X0327526Y0124687D01*
X0326527Y0125685D02*
X0336223Y0125685D01*
X0337221Y0126684D02*
X0325529Y0126684D01*
X0324530Y0127682D02*
X0338220Y0127682D01*
X0339218Y0128681D02*
X0323532Y0128681D01*
X0322533Y0129679D02*
X0340217Y0129679D01*
X0341600Y0128800D02*
X0346600Y0128800D01*
X0351600Y0123800D01*
X0351600Y0073800D01*
X0343199Y0065399D01*
X0343199Y0055598D01*
X0347646Y0055790D02*
X0400587Y0055790D01*
X0401114Y0054791D02*
X0347646Y0054791D01*
X0347646Y0056788D02*
X0406313Y0056788D01*
X0406887Y0056788D02*
X0416600Y0056788D01*
X0416600Y0055790D02*
X0412613Y0055790D01*
X0412086Y0054791D02*
X0416600Y0054791D01*
X0416600Y0057787D02*
X0412757Y0057787D01*
X0412824Y0057448D02*
X0412676Y0058194D01*
X0412385Y0058897D01*
X0411962Y0059530D01*
X0411424Y0060068D01*
X0410792Y0060490D01*
X0410089Y0060781D01*
X0409343Y0060930D01*
X0406887Y0060930D01*
X0406887Y0057355D01*
X0412824Y0057355D01*
X0412824Y0057448D01*
X0412431Y0058785D02*
X0416600Y0058785D01*
X0416600Y0059784D02*
X0411708Y0059784D01*
X0410085Y0060782D02*
X0416600Y0060782D01*
X0416600Y0061781D02*
X0347646Y0061781D01*
X0347646Y0062779D02*
X0416600Y0062779D01*
X0416600Y0063778D02*
X0344799Y0063778D01*
X0344839Y0064776D02*
X0416600Y0064776D01*
X0416600Y0065775D02*
X0345837Y0065775D01*
X0346836Y0066773D02*
X0416600Y0066773D01*
X0416600Y0067772D02*
X0347834Y0067772D01*
X0348833Y0068770D02*
X0416600Y0068770D01*
X0416600Y0069769D02*
X0349831Y0069769D01*
X0350830Y0070767D02*
X0416600Y0070767D01*
X0416600Y0071766D02*
X0351828Y0071766D01*
X0352827Y0072764D02*
X0416600Y0072764D01*
X0416600Y0073763D02*
X0353200Y0073763D01*
X0353200Y0074761D02*
X0416600Y0074761D01*
X0416600Y0075760D02*
X0353200Y0075760D01*
X0353200Y0076758D02*
X0393921Y0076758D01*
X0393705Y0076902D02*
X0394337Y0076480D01*
X0395040Y0076189D01*
X0395787Y0076040D01*
X0395880Y0076040D01*
X0395880Y0081977D01*
X0396454Y0081977D01*
X0396454Y0076040D01*
X0396547Y0076040D01*
X0397293Y0076189D01*
X0397996Y0076480D01*
X0398629Y0076902D01*
X0399167Y0077440D01*
X0399590Y0078073D01*
X0399881Y0078776D01*
X0400029Y0079522D01*
X0400029Y0081977D01*
X0396454Y0081977D01*
X0396454Y0082552D01*
X0395880Y0082552D01*
X0395880Y0088489D01*
X0395787Y0088489D01*
X0395040Y0088341D01*
X0394337Y0088049D01*
X0393705Y0087627D01*
X0393167Y0087089D01*
X0392744Y0086456D01*
X0392453Y0085753D01*
X0392305Y0085007D01*
X0392305Y0082552D01*
X0395879Y0082552D01*
X0395879Y0081977D01*
X0392305Y0081977D01*
X0392305Y0079522D01*
X0392453Y0078776D01*
X0392744Y0078073D01*
X0393167Y0077440D01*
X0393705Y0076902D01*
X0392955Y0077757D02*
X0353200Y0077757D01*
X0353200Y0078755D02*
X0392462Y0078755D01*
X0392305Y0079754D02*
X0353200Y0079754D01*
X0353200Y0080752D02*
X0392305Y0080752D01*
X0392305Y0081751D02*
X0353200Y0081751D01*
X0353200Y0082749D02*
X0384487Y0082749D01*
X0384757Y0082479D02*
X0386029Y0081952D01*
X0387407Y0081952D01*
X0388679Y0082479D01*
X0389653Y0083453D01*
X0390180Y0084725D01*
X0390180Y0090827D01*
X0389653Y0092100D01*
X0388679Y0093074D01*
X0387407Y0093601D01*
X0386029Y0093601D01*
X0384757Y0093074D01*
X0383783Y0092100D01*
X0383256Y0090827D01*
X0383256Y0084725D01*
X0383783Y0083453D01*
X0384757Y0082479D01*
X0383661Y0083748D02*
X0353200Y0083748D01*
X0353200Y0084746D02*
X0383256Y0084746D01*
X0383256Y0085745D02*
X0353200Y0085745D01*
X0353200Y0086743D02*
X0383256Y0086743D01*
X0383256Y0087742D02*
X0353200Y0087742D01*
X0353200Y0088740D02*
X0383256Y0088740D01*
X0383256Y0089739D02*
X0353200Y0089739D01*
X0353200Y0090737D02*
X0383256Y0090737D01*
X0383632Y0091736D02*
X0353200Y0091736D01*
X0353200Y0092734D02*
X0384418Y0092734D01*
X0389018Y0092734D02*
X0416600Y0092734D01*
X0416600Y0091736D02*
X0389804Y0091736D01*
X0390180Y0090737D02*
X0416600Y0090737D01*
X0416600Y0089739D02*
X0390180Y0089739D01*
X0390180Y0088740D02*
X0416600Y0088740D01*
X0416600Y0087742D02*
X0398457Y0087742D01*
X0398629Y0087627D02*
X0397996Y0088049D01*
X0397293Y0088341D01*
X0396547Y0088489D01*
X0396454Y0088489D01*
X0396454Y0082552D01*
X0400029Y0082552D01*
X0400029Y0085007D01*
X0399881Y0085753D01*
X0399590Y0086456D01*
X0399167Y0087089D01*
X0398629Y0087627D01*
X0399398Y0086743D02*
X0416600Y0086743D01*
X0416600Y0085745D02*
X0399882Y0085745D01*
X0400029Y0084746D02*
X0416600Y0084746D01*
X0416600Y0083748D02*
X0400029Y0083748D01*
X0400029Y0082749D02*
X0416600Y0082749D01*
X0416600Y0081751D02*
X0400029Y0081751D01*
X0400029Y0080752D02*
X0416600Y0080752D01*
X0416600Y0079754D02*
X0400029Y0079754D01*
X0399872Y0078755D02*
X0416600Y0078755D01*
X0416600Y0077757D02*
X0399378Y0077757D01*
X0398413Y0076758D02*
X0416600Y0076758D01*
X0396454Y0076758D02*
X0395880Y0076758D01*
X0395880Y0077757D02*
X0396454Y0077757D01*
X0396454Y0078755D02*
X0395880Y0078755D01*
X0395880Y0079754D02*
X0396454Y0079754D01*
X0396454Y0080752D02*
X0395880Y0080752D01*
X0395880Y0081751D02*
X0396454Y0081751D01*
X0396454Y0082749D02*
X0395880Y0082749D01*
X0395880Y0083748D02*
X0396454Y0083748D01*
X0396454Y0084746D02*
X0395880Y0084746D01*
X0395880Y0085745D02*
X0396454Y0085745D01*
X0396454Y0086743D02*
X0395880Y0086743D01*
X0395880Y0087742D02*
X0396454Y0087742D01*
X0393877Y0087742D02*
X0390180Y0087742D01*
X0390180Y0086743D02*
X0392936Y0086743D01*
X0392451Y0085745D02*
X0390180Y0085745D01*
X0390180Y0084746D02*
X0392305Y0084746D01*
X0392305Y0083748D02*
X0389775Y0083748D01*
X0388950Y0082749D02*
X0392305Y0082749D01*
X0416600Y0093733D02*
X0353200Y0093733D01*
X0353200Y0094732D02*
X0416600Y0094732D01*
X0416600Y0095730D02*
X0353200Y0095730D01*
X0353200Y0096729D02*
X0416600Y0096729D01*
X0416600Y0097727D02*
X0353200Y0097727D01*
X0353200Y0098726D02*
X0416600Y0098726D01*
X0416524Y0099724D02*
X0353200Y0099724D01*
X0353200Y0100723D02*
X0416524Y0100723D01*
X0416600Y0101721D02*
X0353200Y0101721D01*
X0353200Y0102720D02*
X0416600Y0102720D01*
X0416600Y0103718D02*
X0353200Y0103718D01*
X0353200Y0104717D02*
X0410804Y0104717D01*
X0410799Y0104717D02*
X0411588Y0104592D01*
X0411588Y0113473D01*
X0406635Y0113473D01*
X0406635Y0109593D01*
X0406769Y0108747D01*
X0407034Y0107933D01*
X0407422Y0107171D01*
X0407925Y0106478D01*
X0408530Y0105873D01*
X0409223Y0105370D01*
X0409985Y0104982D01*
X0410799Y0104717D01*
X0411588Y0104717D02*
X0412557Y0104717D01*
X0413341Y0104717D02*
X0416600Y0104717D01*
X0416600Y0105715D02*
X0415397Y0105715D01*
X0416390Y0106714D02*
X0416600Y0106714D01*
X0412557Y0106714D02*
X0411588Y0106714D01*
X0411588Y0107712D02*
X0412557Y0107712D01*
X0412557Y0108711D02*
X0411588Y0108711D01*
X0411588Y0109709D02*
X0412557Y0109709D01*
X0412557Y0110708D02*
X0411588Y0110708D01*
X0411588Y0111706D02*
X0412557Y0111706D01*
X0412557Y0112705D02*
X0411588Y0112705D01*
X0411588Y0113703D02*
X0392306Y0113703D01*
X0392306Y0112705D02*
X0406635Y0112705D01*
X0406635Y0111706D02*
X0392306Y0111706D01*
X0392306Y0110708D02*
X0406635Y0110708D01*
X0406635Y0109709D02*
X0392306Y0109709D01*
X0392306Y0109019D02*
X0392306Y0118896D01*
X0391539Y0120748D01*
X0390123Y0122165D01*
X0388271Y0122931D01*
X0386267Y0122931D01*
X0384416Y0122165D01*
X0382999Y0120748D01*
X0382232Y0118896D01*
X0382232Y0109019D01*
X0382999Y0107167D01*
X0384416Y0105750D01*
X0386267Y0104983D01*
X0388271Y0104983D01*
X0390123Y0105750D01*
X0391539Y0107167D01*
X0392306Y0109019D01*
X0392179Y0108711D02*
X0406781Y0108711D01*
X0407146Y0107712D02*
X0391765Y0107712D01*
X0391086Y0106714D02*
X0407754Y0106714D01*
X0408748Y0105715D02*
X0390038Y0105715D01*
X0384501Y0105715D02*
X0353200Y0105715D01*
X0353200Y0106714D02*
X0383453Y0106714D01*
X0382773Y0107712D02*
X0353200Y0107712D01*
X0353200Y0108711D02*
X0382360Y0108711D01*
X0382232Y0109709D02*
X0353200Y0109709D01*
X0353200Y0110708D02*
X0382232Y0110708D01*
X0382232Y0111706D02*
X0353200Y0111706D01*
X0353200Y0112705D02*
X0382232Y0112705D01*
X0382232Y0113703D02*
X0353200Y0113703D01*
X0353200Y0114702D02*
X0382232Y0114702D01*
X0382232Y0115700D02*
X0353200Y0115700D01*
X0353200Y0116699D02*
X0382232Y0116699D01*
X0382232Y0117697D02*
X0353200Y0117697D01*
X0353200Y0118696D02*
X0382232Y0118696D01*
X0382563Y0119694D02*
X0353200Y0119694D01*
X0353200Y0120693D02*
X0382976Y0120693D01*
X0383943Y0121691D02*
X0353200Y0121691D01*
X0353200Y0122690D02*
X0385684Y0122690D01*
X0388855Y0122690D02*
X0409508Y0122690D01*
X0408180Y0121691D02*
X0390596Y0121691D01*
X0391562Y0120693D02*
X0407396Y0120693D01*
X0406940Y0119694D02*
X0391976Y0119694D01*
X0392306Y0118696D02*
X0406695Y0118696D01*
X0406635Y0117697D02*
X0392306Y0117697D01*
X0392306Y0116699D02*
X0406635Y0116699D01*
X0406635Y0115700D02*
X0392306Y0115700D01*
X0392306Y0114702D02*
X0406635Y0114702D01*
X0411588Y0114702D02*
X0412557Y0114702D01*
X0412557Y0115700D02*
X0411588Y0115700D01*
X0411588Y0116699D02*
X0412557Y0116699D01*
X0412557Y0117697D02*
X0411588Y0117697D01*
X0411588Y0118696D02*
X0412557Y0118696D01*
X0412557Y0119694D02*
X0411588Y0119694D01*
X0411588Y0120693D02*
X0412557Y0120693D01*
X0412557Y0121691D02*
X0411588Y0121691D01*
X0411588Y0122690D02*
X0412557Y0122690D01*
X0414637Y0122690D02*
X0416600Y0122690D01*
X0416600Y0123688D02*
X0353200Y0123688D01*
X0352976Y0124687D02*
X0416600Y0124687D01*
X0416600Y0125685D02*
X0351977Y0125685D01*
X0350979Y0126684D02*
X0416600Y0126684D01*
X0416600Y0127682D02*
X0349980Y0127682D01*
X0348982Y0128681D02*
X0392905Y0128681D01*
X0393056Y0128604D02*
X0392294Y0128992D01*
X0391601Y0129495D01*
X0390996Y0130101D01*
X0390493Y0130793D01*
X0390105Y0131555D01*
X0389840Y0132369D01*
X0389715Y0133158D01*
X0398596Y0133158D01*
X0398596Y0128206D01*
X0394715Y0128206D01*
X0393870Y0128339D01*
X0393056Y0128604D01*
X0391417Y0129679D02*
X0347983Y0129679D01*
X0341600Y0128800D02*
X0336600Y0123800D01*
X0336600Y0117350D01*
X0348153Y0116699D02*
X0350000Y0116699D01*
X0350000Y0117697D02*
X0348940Y0117697D01*
X0349184Y0118696D02*
X0350000Y0118696D01*
X0350000Y0119694D02*
X0349027Y0119694D01*
X0348362Y0120693D02*
X0350000Y0120693D01*
X0350000Y0121691D02*
X0338200Y0121691D01*
X0338200Y0122690D02*
X0350000Y0122690D01*
X0349449Y0123688D02*
X0338751Y0123688D01*
X0339750Y0124687D02*
X0348450Y0124687D01*
X0347452Y0125685D02*
X0340748Y0125685D01*
X0341747Y0126684D02*
X0346453Y0126684D01*
X0344838Y0120693D02*
X0342063Y0120693D01*
X0321535Y0130678D02*
X0390577Y0130678D01*
X0390065Y0131676D02*
X0320536Y0131676D01*
X0319538Y0132675D02*
X0389792Y0132675D01*
X0398596Y0132675D02*
X0399565Y0132675D01*
X0399565Y0133158D02*
X0399565Y0128206D01*
X0403445Y0128206D01*
X0404290Y0128339D01*
X0405104Y0128604D01*
X0405867Y0128992D01*
X0406559Y0129495D01*
X0407164Y0130101D01*
X0407667Y0130793D01*
X0408056Y0131555D01*
X0408320Y0132369D01*
X0408445Y0133158D01*
X0399565Y0133158D01*
X0399565Y0133673D02*
X0416600Y0133673D01*
X0416600Y0132675D02*
X0408369Y0132675D01*
X0408095Y0131676D02*
X0416600Y0131676D01*
X0416600Y0130678D02*
X0407584Y0130678D01*
X0406743Y0129679D02*
X0416600Y0129679D01*
X0416600Y0128681D02*
X0405256Y0128681D01*
X0399565Y0128681D02*
X0398596Y0128681D01*
X0398596Y0129679D02*
X0399565Y0129679D01*
X0399565Y0130678D02*
X0398596Y0130678D01*
X0398596Y0131676D02*
X0399565Y0131676D01*
X0398596Y0133673D02*
X0318539Y0133673D01*
X0259211Y0133673D02*
X0213989Y0133673D01*
X0214988Y0132675D02*
X0258212Y0132675D01*
X0257214Y0131676D02*
X0215986Y0131676D01*
X0211461Y0131676D02*
X0204476Y0131676D01*
X0204024Y0098726D02*
X0208610Y0098726D01*
X0208011Y0097727D02*
X0204756Y0097727D01*
X0205100Y0096729D02*
X0207729Y0096729D01*
X0207700Y0095730D02*
X0205100Y0095730D01*
X0205100Y0094732D02*
X0207700Y0094732D01*
X0198100Y0094732D02*
X0195784Y0094732D01*
X0195100Y0093733D02*
X0198100Y0093733D01*
X0198100Y0092734D02*
X0195100Y0092734D01*
X0195100Y0091736D02*
X0198100Y0091736D01*
X0198100Y0090737D02*
X0195100Y0090737D01*
X0194700Y0089739D02*
X0198500Y0089739D01*
X0199310Y0088740D02*
X0193890Y0088740D01*
X0192579Y0087742D02*
X0184575Y0087742D01*
X0184876Y0086743D02*
X0191581Y0086743D01*
X0190582Y0085745D02*
X0184854Y0085745D01*
X0184900Y0085975D02*
X0184900Y0086200D01*
X0181700Y0086200D01*
X0181700Y0083000D01*
X0181925Y0083000D01*
X0182563Y0083127D01*
X0183163Y0083376D01*
X0183704Y0083737D01*
X0184163Y0084196D01*
X0184524Y0084737D01*
X0184773Y0085337D01*
X0184900Y0085975D01*
X0184528Y0084746D02*
X0189584Y0084746D01*
X0188585Y0083748D02*
X0183715Y0083748D01*
X0181700Y0083748D02*
X0181500Y0083748D01*
X0181500Y0084746D02*
X0181700Y0084746D01*
X0181700Y0085745D02*
X0181500Y0085745D01*
X0183890Y0088740D02*
X0189310Y0088740D01*
X0188500Y0089739D02*
X0184700Y0089739D01*
X0185100Y0090737D02*
X0188100Y0090737D01*
X0188100Y0091736D02*
X0185100Y0091736D01*
X0185100Y0092734D02*
X0188100Y0092734D01*
X0188100Y0093733D02*
X0185100Y0093733D01*
X0185100Y0094732D02*
X0188100Y0094732D01*
X0188100Y0095730D02*
X0185100Y0095730D01*
X0185100Y0096729D02*
X0188100Y0096729D01*
X0188444Y0097727D02*
X0184756Y0097727D01*
X0184024Y0098726D02*
X0189176Y0098726D01*
X0196783Y0095730D02*
X0198100Y0095730D01*
X0198100Y0096729D02*
X0197781Y0096729D01*
X0187587Y0082749D02*
X0103655Y0082749D01*
X0103999Y0081751D02*
X0186588Y0081751D01*
X0185294Y0077757D02*
X0103999Y0077757D01*
X0096681Y0079754D02*
X0096519Y0079754D01*
X0096519Y0080752D02*
X0096681Y0080752D01*
X0096681Y0081751D02*
X0096519Y0081751D01*
X0096175Y0082749D02*
X0097025Y0082749D01*
X0089545Y0082749D02*
X0043600Y0082749D01*
X0043600Y0081751D02*
X0089201Y0081751D01*
X0089201Y0080752D02*
X0043600Y0080752D01*
X0043600Y0079754D02*
X0089201Y0079754D01*
X0089201Y0078755D02*
X0068246Y0078755D01*
X0160850Y0066773D02*
X0172638Y0066773D01*
X0172638Y0065775D02*
X0160850Y0065775D01*
X0188100Y0065775D02*
X0201212Y0065775D01*
X0202210Y0066773D02*
X0188100Y0066773D01*
X0188100Y0067772D02*
X0203209Y0067772D01*
X0204208Y0068770D02*
X0188100Y0068770D01*
X0188100Y0069769D02*
X0205206Y0069769D01*
X0205200Y0070767D02*
X0188100Y0070767D01*
X0188100Y0071766D02*
X0205527Y0071766D01*
X0206363Y0072764D02*
X0188100Y0072764D01*
X0193053Y0073763D02*
X0214016Y0073763D01*
X0214201Y0074761D02*
X0213566Y0074761D01*
X0213999Y0075760D02*
X0214905Y0075760D01*
X0215000Y0076758D02*
X0213999Y0076758D01*
X0217400Y0076758D02*
X0282396Y0076758D01*
X0281397Y0075760D02*
X0273295Y0075760D01*
X0273999Y0074761D02*
X0280399Y0074761D01*
X0279400Y0073763D02*
X0274184Y0073763D01*
X0273968Y0072764D02*
X0276563Y0072764D01*
X0275727Y0071766D02*
X0273220Y0071766D01*
X0271600Y0073800D02*
X0271600Y0067540D01*
X0275850Y0067772D02*
X0277067Y0067772D01*
X0275850Y0066773D02*
X0282350Y0066773D01*
X0282350Y0065775D02*
X0275850Y0065775D01*
X0275850Y0064776D02*
X0282350Y0064776D01*
X0282350Y0062779D02*
X0275850Y0062779D01*
X0275850Y0063075D02*
X0275205Y0063719D01*
X0267995Y0063719D01*
X0267350Y0063075D01*
X0267350Y0061660D01*
X0261003Y0061660D01*
X0253200Y0069463D01*
X0252263Y0070400D01*
X0249196Y0070400D01*
X0249196Y0071618D01*
X0248552Y0072262D01*
X0242916Y0072262D01*
X0242272Y0071618D01*
X0242272Y0065982D01*
X0242916Y0065338D01*
X0248552Y0065338D01*
X0249196Y0065982D01*
X0249196Y0067200D01*
X0250937Y0067200D01*
X0259677Y0058460D01*
X0267350Y0058460D01*
X0267350Y0057045D01*
X0267995Y0056401D01*
X0275205Y0056401D01*
X0275850Y0057045D01*
X0275850Y0063075D01*
X0275850Y0061781D02*
X0282350Y0061781D01*
X0282350Y0060782D02*
X0275850Y0060782D01*
X0275850Y0059784D02*
X0282350Y0059784D01*
X0282350Y0058785D02*
X0275850Y0058785D01*
X0275850Y0057787D02*
X0282350Y0057787D01*
X0282325Y0056788D02*
X0275593Y0056788D01*
X0281327Y0055790D02*
X0261873Y0055790D01*
X0260875Y0056788D02*
X0267607Y0056788D01*
X0267350Y0057787D02*
X0259876Y0057787D01*
X0259352Y0058785D02*
X0258878Y0058785D01*
X0258200Y0059463D02*
X0258200Y0059463D01*
X0258354Y0059784D02*
X0257879Y0059784D01*
X0257355Y0060782D02*
X0249196Y0060782D01*
X0249033Y0061781D02*
X0256357Y0061781D01*
X0255358Y0062779D02*
X0223021Y0062779D01*
X0223046Y0061781D02*
X0233729Y0061781D01*
X0233706Y0061741D02*
X0233604Y0061360D01*
X0233604Y0059300D01*
X0236966Y0059300D01*
X0236966Y0058300D01*
X0233604Y0058300D01*
X0233604Y0056240D01*
X0233706Y0055859D01*
X0233904Y0055517D01*
X0234183Y0055237D01*
X0234525Y0055040D01*
X0234906Y0054938D01*
X0236966Y0054938D01*
X0236966Y0058300D01*
X0237966Y0058300D01*
X0237966Y0054938D01*
X0240026Y0054938D01*
X0240407Y0055040D01*
X0240749Y0055237D01*
X0241029Y0055517D01*
X0241226Y0055859D01*
X0241328Y0056240D01*
X0241328Y0058300D01*
X0237966Y0058300D01*
X0237966Y0059300D01*
X0236966Y0059300D01*
X0236966Y0062662D01*
X0234906Y0062662D01*
X0234525Y0062560D01*
X0234183Y0062362D01*
X0233904Y0062083D01*
X0233706Y0061741D01*
X0233604Y0060782D02*
X0223046Y0060782D01*
X0223046Y0059784D02*
X0233604Y0059784D01*
X0236966Y0059784D02*
X0237966Y0059784D01*
X0237966Y0059300D02*
X0237966Y0062662D01*
X0240026Y0062662D01*
X0240407Y0062560D01*
X0240749Y0062362D01*
X0241029Y0062083D01*
X0241226Y0061741D01*
X0241328Y0061360D01*
X0241328Y0059300D01*
X0237966Y0059300D01*
X0237966Y0058785D02*
X0242272Y0058785D01*
X0242272Y0057787D02*
X0241328Y0057787D01*
X0241328Y0056788D02*
X0242272Y0056788D01*
X0242464Y0055790D02*
X0241186Y0055790D01*
X0237966Y0055790D02*
X0236966Y0055790D01*
X0236966Y0056788D02*
X0237966Y0056788D01*
X0237966Y0057787D02*
X0236966Y0057787D01*
X0236966Y0058785D02*
X0223046Y0058785D01*
X0223046Y0057787D02*
X0233604Y0057787D01*
X0233604Y0056788D02*
X0223046Y0056788D01*
X0218699Y0056788D02*
X0217699Y0056788D01*
X0217699Y0056098D02*
X0217699Y0063988D01*
X0214655Y0063988D01*
X0214274Y0063886D01*
X0213932Y0063688D01*
X0213652Y0063409D01*
X0213455Y0063067D01*
X0213353Y0062686D01*
X0213353Y0056098D01*
X0217699Y0056098D01*
X0217699Y0055790D02*
X0211847Y0055790D01*
X0211847Y0056788D02*
X0213353Y0056788D01*
X0213353Y0057787D02*
X0211847Y0057787D01*
X0211847Y0058785D02*
X0213353Y0058785D01*
X0213353Y0059784D02*
X0211847Y0059784D01*
X0211847Y0060782D02*
X0213353Y0060782D01*
X0213353Y0061781D02*
X0211847Y0061781D01*
X0211847Y0062779D02*
X0213378Y0062779D01*
X0214086Y0063778D02*
X0209001Y0063778D01*
X0209839Y0064776D02*
X0253361Y0064776D01*
X0254360Y0063778D02*
X0222312Y0063778D01*
X0218699Y0063778D02*
X0217699Y0063778D01*
X0217699Y0062779D02*
X0218699Y0062779D01*
X0218699Y0061781D02*
X0217699Y0061781D01*
X0217699Y0060782D02*
X0218699Y0060782D01*
X0218699Y0059784D02*
X0217699Y0059784D01*
X0217699Y0058785D02*
X0218699Y0058785D01*
X0218699Y0057787D02*
X0217699Y0057787D01*
X0218699Y0055790D02*
X0233746Y0055790D01*
X0236966Y0060782D02*
X0237966Y0060782D01*
X0237966Y0061781D02*
X0236966Y0061781D01*
X0241203Y0061781D02*
X0242434Y0061781D01*
X0242272Y0060782D02*
X0241328Y0060782D01*
X0241328Y0059784D02*
X0242272Y0059784D01*
X0245734Y0058800D02*
X0256600Y0058800D01*
X0261600Y0053800D01*
X0281600Y0053800D01*
X0286600Y0058800D01*
X0286600Y0060060D01*
X0290850Y0059784D02*
X0295154Y0059784D01*
X0295154Y0060782D02*
X0290850Y0060782D01*
X0290850Y0061781D02*
X0295154Y0061781D01*
X0295154Y0062686D02*
X0295154Y0056098D01*
X0299501Y0056098D01*
X0299501Y0063988D01*
X0296457Y0063988D01*
X0296075Y0063886D01*
X0295733Y0063688D01*
X0295454Y0063409D01*
X0295257Y0063067D01*
X0295154Y0062686D01*
X0295179Y0062779D02*
X0290850Y0062779D01*
X0290850Y0064776D02*
X0303361Y0064776D01*
X0304114Y0063778D02*
X0304360Y0063778D01*
X0304822Y0062779D02*
X0305358Y0062779D01*
X0304847Y0061781D02*
X0306353Y0061781D01*
X0306353Y0060782D02*
X0304847Y0060782D01*
X0304847Y0059784D02*
X0306353Y0059784D01*
X0306353Y0058785D02*
X0304847Y0058785D01*
X0304847Y0057787D02*
X0306353Y0057787D01*
X0306353Y0056788D02*
X0304847Y0056788D01*
X0306353Y0055790D02*
X0300501Y0055790D01*
X0300501Y0056788D02*
X0299501Y0056788D01*
X0299501Y0055790D02*
X0285852Y0055790D01*
X0284854Y0054791D02*
X0295154Y0054791D01*
X0295154Y0056788D02*
X0290593Y0056788D01*
X0290850Y0057787D02*
X0295154Y0057787D01*
X0295154Y0058785D02*
X0290850Y0058785D01*
X0299501Y0058785D02*
X0300501Y0058785D01*
X0300501Y0057787D02*
X0299501Y0057787D01*
X0299501Y0059784D02*
X0300501Y0059784D01*
X0300501Y0060782D02*
X0299501Y0060782D01*
X0299501Y0061781D02*
X0300501Y0061781D01*
X0300501Y0062779D02*
X0299501Y0062779D01*
X0299501Y0063778D02*
X0300501Y0063778D01*
X0295888Y0063778D02*
X0258885Y0063778D01*
X0257887Y0064776D02*
X0267350Y0064776D01*
X0267350Y0065775D02*
X0256888Y0065775D01*
X0255890Y0066773D02*
X0267350Y0066773D01*
X0267350Y0067772D02*
X0254891Y0067772D01*
X0253892Y0068770D02*
X0267350Y0068770D01*
X0267350Y0069769D02*
X0252894Y0069769D01*
X0251600Y0068800D02*
X0245734Y0068800D01*
X0242272Y0068770D02*
X0237966Y0068770D01*
X0237966Y0068300D02*
X0237966Y0069300D01*
X0236966Y0069300D01*
X0236966Y0068300D01*
X0233604Y0068300D01*
X0233604Y0066240D01*
X0233706Y0065859D01*
X0233904Y0065517D01*
X0234183Y0065237D01*
X0234525Y0065040D01*
X0234906Y0064938D01*
X0236966Y0064938D01*
X0236966Y0068300D01*
X0237966Y0068300D01*
X0237966Y0064938D01*
X0240026Y0064938D01*
X0240407Y0065040D01*
X0240749Y0065237D01*
X0241029Y0065517D01*
X0241226Y0065859D01*
X0241328Y0066240D01*
X0241328Y0068300D01*
X0237966Y0068300D01*
X0237966Y0067772D02*
X0236966Y0067772D01*
X0236966Y0068770D02*
X0213833Y0068770D01*
X0212834Y0067772D02*
X0233604Y0067772D01*
X0233604Y0066773D02*
X0211836Y0066773D01*
X0210837Y0065775D02*
X0233755Y0065775D01*
X0236966Y0065775D02*
X0237966Y0065775D01*
X0237966Y0066773D02*
X0236966Y0066773D01*
X0236966Y0069300D02*
X0233604Y0069300D01*
X0233604Y0071360D01*
X0233706Y0071741D01*
X0233904Y0072083D01*
X0234183Y0072362D01*
X0234525Y0072560D01*
X0234906Y0072662D01*
X0236966Y0072662D01*
X0236966Y0069300D01*
X0236966Y0069769D02*
X0237966Y0069769D01*
X0237966Y0069300D02*
X0237966Y0072662D01*
X0240026Y0072662D01*
X0240407Y0072560D01*
X0240749Y0072362D01*
X0241029Y0072083D01*
X0241226Y0071741D01*
X0241328Y0071360D01*
X0241328Y0069300D01*
X0237966Y0069300D01*
X0237966Y0070767D02*
X0236966Y0070767D01*
X0236966Y0071766D02*
X0237966Y0071766D01*
X0241212Y0071766D02*
X0242420Y0071766D01*
X0242272Y0070767D02*
X0241328Y0070767D01*
X0241328Y0069769D02*
X0242272Y0069769D01*
X0249196Y0070767D02*
X0267563Y0070767D01*
X0269980Y0071766D02*
X0249048Y0071766D01*
X0251600Y0068800D02*
X0260340Y0060060D01*
X0271600Y0060060D01*
X0267350Y0061781D02*
X0260882Y0061781D01*
X0259884Y0062779D02*
X0267350Y0062779D01*
X0279533Y0067772D02*
X0282350Y0067772D01*
X0282350Y0068770D02*
X0280764Y0068770D01*
X0281177Y0069769D02*
X0282350Y0069769D01*
X0282563Y0070767D02*
X0281200Y0070767D01*
X0281928Y0071766D02*
X0284980Y0071766D01*
X0284232Y0072764D02*
X0282927Y0072764D01*
X0283926Y0073763D02*
X0284016Y0073763D01*
X0286600Y0073800D02*
X0286600Y0067540D01*
X0290850Y0067772D02*
X0300366Y0067772D01*
X0301364Y0066773D02*
X0290850Y0066773D01*
X0290850Y0065775D02*
X0302363Y0065775D01*
X0299367Y0068770D02*
X0290850Y0068770D01*
X0290850Y0069769D02*
X0298369Y0069769D01*
X0297370Y0070767D02*
X0290637Y0070767D01*
X0288220Y0071766D02*
X0294980Y0071766D01*
X0294232Y0072764D02*
X0288968Y0072764D01*
X0289184Y0073763D02*
X0294016Y0073763D01*
X0294201Y0074761D02*
X0288999Y0074761D01*
X0288295Y0075760D02*
X0294905Y0075760D01*
X0301700Y0077600D02*
X0321500Y0057800D01*
X0321500Y0056000D01*
X0321600Y0055599D01*
X0311600Y0056399D02*
X0310799Y0055598D01*
X0311600Y0056399D02*
X0311600Y0058800D01*
X0296600Y0073800D01*
X0305803Y0075760D02*
X0312077Y0075760D01*
X0311079Y0076758D02*
X0304804Y0076758D01*
X0303806Y0077757D02*
X0310080Y0077757D01*
X0309082Y0078755D02*
X0302807Y0078755D01*
X0302363Y0079200D02*
X0284837Y0079200D01*
X0283900Y0078263D01*
X0284393Y0078755D02*
X0219072Y0078755D01*
X0219100Y0078823D02*
X0219100Y0079977D01*
X0218658Y0081043D01*
X0217843Y0081858D01*
X0216777Y0082300D01*
X0215623Y0082300D01*
X0214557Y0081858D01*
X0213999Y0081300D01*
X0213999Y0082300D01*
X0305537Y0082300D01*
X0324248Y0063589D01*
X0317974Y0063589D01*
X0303300Y0078263D01*
X0302363Y0079200D01*
X0303300Y0078263D02*
X0303300Y0078263D01*
X0301700Y0077600D02*
X0285500Y0077600D01*
X0278300Y0070400D01*
X0269232Y0072764D02*
X0218968Y0072764D01*
X0219184Y0073763D02*
X0269016Y0073763D01*
X0269201Y0074761D02*
X0218999Y0074761D01*
X0218295Y0075760D02*
X0269905Y0075760D01*
X0251364Y0066773D02*
X0249196Y0066773D01*
X0248989Y0065775D02*
X0252363Y0065775D01*
X0242479Y0065775D02*
X0241178Y0065775D01*
X0241328Y0066773D02*
X0242272Y0066773D01*
X0242272Y0067772D02*
X0241328Y0067772D01*
X0233604Y0069769D02*
X0214831Y0069769D01*
X0215830Y0070767D02*
X0233604Y0070767D01*
X0233720Y0071766D02*
X0218220Y0071766D01*
X0216600Y0073800D02*
X0207401Y0064601D01*
X0207401Y0055598D01*
X0211847Y0054791D02*
X0213353Y0054791D01*
X0223046Y0054791D02*
X0258346Y0054791D01*
X0257348Y0055790D02*
X0249003Y0055790D01*
X0249196Y0056788D02*
X0256349Y0056788D01*
X0212303Y0071766D02*
X0210673Y0071766D01*
X0211000Y0070767D02*
X0211305Y0070767D01*
X0208100Y0070400D02*
X0197300Y0059600D01*
X0197300Y0056000D01*
X0196600Y0055599D01*
X0192154Y0055790D02*
X0190246Y0055790D01*
X0190246Y0056788D02*
X0192154Y0056788D01*
X0192154Y0057787D02*
X0190246Y0057787D01*
X0190246Y0058785D02*
X0192154Y0058785D01*
X0192154Y0059784D02*
X0190246Y0059784D01*
X0190246Y0060782D02*
X0192154Y0060782D01*
X0192154Y0061781D02*
X0190246Y0061781D01*
X0190246Y0062779D02*
X0192154Y0062779D01*
X0188100Y0063778D02*
X0199215Y0063778D01*
X0200213Y0064776D02*
X0188100Y0064776D01*
X0186500Y0056000D02*
X0185799Y0055598D01*
X0186500Y0056000D02*
X0186500Y0076700D01*
X0191600Y0076300D02*
X0195360Y0076300D01*
X0202860Y0078800D01*
X0206519Y0078755D02*
X0206681Y0078755D01*
X0206681Y0077757D02*
X0206519Y0077757D01*
X0206519Y0076758D02*
X0206681Y0076758D01*
X0206681Y0075760D02*
X0206519Y0075760D01*
X0206085Y0074761D02*
X0207115Y0074761D01*
X0209837Y0072764D02*
X0213302Y0072764D01*
X0218658Y0077757D02*
X0219100Y0078823D01*
X0219100Y0079754D02*
X0308083Y0079754D01*
X0307085Y0080752D02*
X0218779Y0080752D01*
X0217950Y0081751D02*
X0306086Y0081751D01*
X0306801Y0074761D02*
X0313076Y0074761D01*
X0314074Y0073763D02*
X0307800Y0073763D01*
X0308798Y0072764D02*
X0315073Y0072764D01*
X0316071Y0071766D02*
X0309797Y0071766D01*
X0310795Y0070767D02*
X0317070Y0070767D01*
X0318069Y0069769D02*
X0311794Y0069769D01*
X0312792Y0068770D02*
X0319067Y0068770D01*
X0320066Y0067772D02*
X0313791Y0067772D01*
X0314790Y0066773D02*
X0321064Y0066773D01*
X0322063Y0065775D02*
X0315788Y0065775D01*
X0316787Y0064776D02*
X0323061Y0064776D01*
X0324060Y0063778D02*
X0317785Y0063778D01*
X0306353Y0054791D02*
X0304847Y0054791D01*
X0336847Y0054791D02*
X0338753Y0054791D01*
X0347646Y0057787D02*
X0400443Y0057787D01*
X0400769Y0058785D02*
X0347646Y0058785D01*
X0347646Y0059784D02*
X0401492Y0059784D01*
X0403115Y0060782D02*
X0347646Y0060782D01*
X0406313Y0060782D02*
X0406887Y0060782D01*
X0406887Y0059784D02*
X0406313Y0059784D01*
X0406313Y0058785D02*
X0406887Y0058785D01*
X0406887Y0057787D02*
X0406313Y0057787D01*
X0350000Y0086743D02*
X0330706Y0086743D01*
X0331700Y0087742D02*
X0350000Y0087742D01*
X0350000Y0088740D02*
X0331700Y0088740D01*
X0331700Y0089739D02*
X0350000Y0089739D01*
X0350000Y0090737D02*
X0331700Y0090737D01*
X0331700Y0091736D02*
X0350000Y0091736D01*
X0350000Y0092734D02*
X0331700Y0092734D01*
X0331700Y0093733D02*
X0350000Y0093733D01*
X0350000Y0094732D02*
X0331700Y0094732D01*
X0331700Y0095730D02*
X0350000Y0095730D01*
X0350000Y0096729D02*
X0341884Y0096729D01*
X0342150Y0097727D02*
X0350000Y0097727D01*
X0350000Y0098726D02*
X0342150Y0098726D01*
X0342150Y0099724D02*
X0350000Y0099724D01*
X0350000Y0100723D02*
X0342150Y0100723D01*
X0342150Y0101721D02*
X0350000Y0101721D01*
X0350000Y0102720D02*
X0342150Y0102720D01*
X0341938Y0103718D02*
X0350000Y0103718D01*
X0334600Y0103718D02*
X0334600Y0103718D01*
X0334600Y0102720D02*
X0334600Y0102720D01*
X0334600Y0101721D02*
X0334600Y0101721D01*
X0334600Y0100723D02*
X0334600Y0100723D01*
X0334600Y0100250D02*
X0334600Y0095950D01*
X0334600Y0100250D01*
X0334600Y0100250D01*
X0334600Y0099724D02*
X0334600Y0099724D01*
X0334600Y0098726D02*
X0334600Y0098726D01*
X0334600Y0097727D02*
X0334600Y0097727D01*
X0334600Y0096729D02*
X0334600Y0096729D01*
X0332600Y0096729D02*
X0332600Y0096729D01*
X0332600Y0095950D02*
X0332600Y0100250D01*
X0332600Y0100250D01*
X0332600Y0095950D01*
X0332600Y0097727D02*
X0332600Y0097727D01*
X0332600Y0098726D02*
X0332600Y0098726D01*
X0332600Y0099724D02*
X0332600Y0099724D01*
X0411588Y0105715D02*
X0412557Y0105715D01*
X0415965Y0121691D02*
X0416600Y0121691D01*
X0216200Y0079400D02*
X0210800Y0079400D01*
X0210340Y0078800D01*
X0206681Y0079754D02*
X0206519Y0079754D01*
X0206519Y0080752D02*
X0206681Y0080752D01*
X0206681Y0081751D02*
X0206519Y0081751D01*
X0213999Y0081751D02*
X0214450Y0081751D01*
X0199201Y0075760D02*
X0198799Y0075760D01*
X0199634Y0074761D02*
X0196084Y0074761D01*
X0192154Y0054791D02*
X0190246Y0054791D01*
D23*
X0082401Y0055598D02*
X0082401Y0068800D01*
X0121600Y0113800D02*
X0141600Y0093800D01*
X0121600Y0113800D02*
X0121600Y0123800D01*
D24*
X0191600Y0093800D02*
X0206600Y0108800D01*
X0211600Y0108800D01*
X0211600Y0113662D01*
X0211462Y0113800D01*
X0211600Y0113800D01*
X0211600Y0123800D01*
X0211600Y0113800D02*
X0220340Y0105060D01*
X0271600Y0105060D01*
X0272860Y0105060D01*
X0286600Y0118800D01*
X0316600Y0118800D01*
M02*
