G75*
%MOIN*%
%OFA0B0*%
%FSLAX25Y25*%
%IPPOS*%
%LPD*%
%AMOC8*
5,1,8,0,0,1.08239X$1,22.5*
%
%ADD10R,0.07193X0.14280*%
%ADD11C,0.05300*%
%ADD12C,0.04100*%
%ADD13C,0.08374*%
%ADD14C,0.05224*%
%ADD15R,0.05300X0.09300*%
%ADD16R,0.14673X0.09161*%
%ADD17C,0.03469*%
D10*
X0055400Y0055600D03*
X0066200Y0055600D03*
X0077000Y0055600D03*
X0087800Y0055600D03*
X0180400Y0055600D03*
X0191200Y0055600D03*
X0202000Y0055600D03*
X0212800Y0055600D03*
X0305400Y0055600D03*
X0316200Y0055600D03*
X0327000Y0055600D03*
X0337800Y0055600D03*
D11*
X0271600Y0091400D02*
X0271600Y0096200D01*
X0261600Y0096200D02*
X0261600Y0091400D01*
X0251600Y0091400D02*
X0251600Y0096200D01*
X0241600Y0096200D02*
X0241600Y0091400D01*
X0231600Y0091400D02*
X0231600Y0096200D01*
X0221600Y0096200D02*
X0221600Y0091400D01*
X0211600Y0091400D02*
X0211600Y0096200D01*
X0201600Y0096200D02*
X0201600Y0091400D01*
X0191600Y0091400D02*
X0191600Y0096200D01*
X0181600Y0096200D02*
X0181600Y0091400D01*
X0171600Y0091400D02*
X0171600Y0096200D01*
X0161600Y0096200D02*
X0161600Y0091400D01*
X0151600Y0091400D02*
X0151600Y0096200D01*
X0141600Y0096200D02*
X0141600Y0091400D01*
X0121600Y0091400D02*
X0121600Y0096200D01*
X0111600Y0096200D02*
X0111600Y0091400D01*
X0101600Y0091400D02*
X0101600Y0096200D01*
X0091600Y0096200D02*
X0091600Y0091400D01*
X0081600Y0091400D02*
X0081600Y0096200D01*
X0071600Y0096200D02*
X0071600Y0091400D01*
X0061600Y0091400D02*
X0061600Y0096200D01*
X0051600Y0096200D02*
X0051600Y0091400D01*
X0051600Y0121400D02*
X0051600Y0126200D01*
X0061600Y0126200D02*
X0061600Y0121400D01*
X0071600Y0121400D02*
X0071600Y0126200D01*
X0081600Y0126200D02*
X0081600Y0121400D01*
X0091600Y0121400D02*
X0091600Y0126200D01*
X0101600Y0126200D02*
X0101600Y0121400D01*
X0111600Y0121400D02*
X0111600Y0126200D01*
X0121600Y0126200D02*
X0121600Y0121400D01*
X0141600Y0121400D02*
X0141600Y0126200D01*
X0151600Y0126200D02*
X0151600Y0121400D01*
X0161600Y0121400D02*
X0161600Y0126200D01*
X0171600Y0126200D02*
X0171600Y0121400D01*
X0181600Y0121400D02*
X0181600Y0126200D01*
X0191600Y0126200D02*
X0191600Y0121400D01*
X0201600Y0121400D02*
X0201600Y0126200D01*
X0211600Y0126200D02*
X0211600Y0121400D01*
X0221600Y0121400D02*
X0221600Y0126200D01*
X0231600Y0126200D02*
X0231600Y0121400D01*
X0241600Y0121400D02*
X0241600Y0126200D01*
X0251600Y0126200D02*
X0251600Y0121400D01*
X0261600Y0121400D02*
X0261600Y0126200D01*
X0271600Y0126200D02*
X0271600Y0121400D01*
D12*
X0237800Y0101000D03*
X0181600Y0086300D03*
X0191600Y0076300D03*
X0208100Y0070400D03*
X0216200Y0079400D03*
X0181600Y0066300D03*
X0278300Y0070400D03*
X0066600Y0076300D03*
X0056600Y0066300D03*
X0056600Y0086300D03*
D13*
X0387269Y0110020D02*
X0387269Y0117894D01*
X0412072Y0117894D02*
X0412072Y0110020D01*
X0403017Y0133643D02*
X0395143Y0133643D01*
D14*
X0419986Y0100375D02*
X0424710Y0100375D01*
X0386718Y0090139D02*
X0386718Y0085414D01*
X0396167Y0084627D02*
X0396167Y0079902D01*
X0424513Y0072422D02*
X0424513Y0067698D01*
X0408962Y0057068D02*
X0404238Y0057068D01*
D15*
X0375700Y0126000D03*
X0366600Y0126000D03*
X0357500Y0126000D03*
D16*
X0366600Y0101599D03*
D17*
X0166600Y0053800D03*
X0156600Y0073800D03*
X0141600Y0073800D03*
X0106600Y0063800D03*
X0082401Y0068800D03*
X0196600Y0073800D03*
X0216600Y0073800D03*
X0236600Y0063800D03*
X0271600Y0073800D03*
X0276600Y0078800D03*
X0286600Y0073800D03*
X0296600Y0073800D03*
X0341600Y0078800D03*
X0333100Y0091300D03*
X0326600Y0091300D03*
X0326600Y0113800D03*
X0316600Y0118800D03*
X0316600Y0123800D03*
X0331600Y0128800D03*
X0346600Y0118800D03*
X0291600Y0053800D03*
M02*
