G75*
%MOIN*%
%OFA0B0*%
%FSLAX25Y25*%
%IPPOS*%
%LPD*%
%AMOC8*
5,1,8,0,0,1.08239X$1,22.5*
%
%ADD10R,0.07193X0.14280*%
%ADD11C,0.05300*%
%ADD12R,0.01400X0.06100*%
%ADD13R,0.05224X0.05224*%
%ADD14R,0.06799X0.05618*%
%ADD15R,0.04142X0.03413*%
%ADD16R,0.07100X0.02300*%
%ADD17R,0.05618X0.06799*%
%ADD18C,0.04100*%
%ADD19C,0.08374*%
%ADD20C,0.05224*%
%ADD21C,0.03469*%
D10*
X0050001Y0055598D03*
X0060799Y0055598D03*
X0071600Y0055599D03*
X0082401Y0055598D03*
X0093199Y0055598D03*
X0175001Y0055598D03*
X0185799Y0055598D03*
X0196600Y0055599D03*
X0207401Y0055598D03*
X0218199Y0055598D03*
X0300001Y0055598D03*
X0310799Y0055598D03*
X0321600Y0055599D03*
X0332401Y0055598D03*
X0343199Y0055598D03*
D11*
X0271600Y0091400D02*
X0271600Y0096200D01*
X0261600Y0096200D02*
X0261600Y0091400D01*
X0251600Y0091400D02*
X0251600Y0096200D01*
X0241600Y0096200D02*
X0241600Y0091400D01*
X0231600Y0091400D02*
X0231600Y0096200D01*
X0221600Y0096200D02*
X0221600Y0091400D01*
X0211600Y0091400D02*
X0211600Y0096200D01*
X0201600Y0096200D02*
X0201600Y0091400D01*
X0191600Y0091400D02*
X0191600Y0096200D01*
X0181600Y0096200D02*
X0181600Y0091400D01*
X0171600Y0091400D02*
X0171600Y0096200D01*
X0161600Y0096200D02*
X0161600Y0091400D01*
X0151600Y0091400D02*
X0151600Y0096200D01*
X0141600Y0096200D02*
X0141600Y0091400D01*
X0121600Y0091400D02*
X0121600Y0096200D01*
X0111600Y0096200D02*
X0111600Y0091400D01*
X0101600Y0091400D02*
X0101600Y0096200D01*
X0091600Y0096200D02*
X0091600Y0091400D01*
X0081600Y0091400D02*
X0081600Y0096200D01*
X0071600Y0096200D02*
X0071600Y0091400D01*
X0061600Y0091400D02*
X0061600Y0096200D01*
X0051600Y0096200D02*
X0051600Y0091400D01*
X0051600Y0121400D02*
X0051600Y0126200D01*
X0061600Y0126200D02*
X0061600Y0121400D01*
X0071600Y0121400D02*
X0071600Y0126200D01*
X0081600Y0126200D02*
X0081600Y0121400D01*
X0091600Y0121400D02*
X0091600Y0126200D01*
X0101600Y0126200D02*
X0101600Y0121400D01*
X0111600Y0121400D02*
X0111600Y0126200D01*
X0121600Y0126200D02*
X0121600Y0121400D01*
X0141600Y0121400D02*
X0141600Y0126200D01*
X0151600Y0126200D02*
X0151600Y0121400D01*
X0161600Y0121400D02*
X0161600Y0126200D01*
X0171600Y0126200D02*
X0171600Y0121400D01*
X0181600Y0121400D02*
X0181600Y0126200D01*
X0191600Y0126200D02*
X0191600Y0121400D01*
X0201600Y0121400D02*
X0201600Y0126200D01*
X0211600Y0126200D02*
X0211600Y0121400D01*
X0221600Y0121400D02*
X0221600Y0126200D01*
X0231600Y0126200D02*
X0231600Y0121400D01*
X0241600Y0121400D02*
X0241600Y0126200D01*
X0251600Y0126200D02*
X0251600Y0121400D01*
X0261600Y0121400D02*
X0261600Y0126200D01*
X0271600Y0126200D02*
X0271600Y0121400D01*
D12*
X0332600Y0117350D03*
X0334600Y0117350D03*
X0336600Y0117350D03*
X0338600Y0117350D03*
X0340600Y0117350D03*
X0340600Y0100250D03*
X0338600Y0100250D03*
X0336600Y0100250D03*
X0334600Y0100250D03*
X0332600Y0100250D03*
D13*
X0245734Y0068800D03*
X0237466Y0068800D03*
X0237466Y0058800D03*
X0245734Y0058800D03*
X0115734Y0058800D03*
X0107466Y0058800D03*
X0107466Y0068800D03*
X0115734Y0068800D03*
D14*
X0141600Y0067540D03*
X0156600Y0067540D03*
X0156600Y0060060D03*
X0141600Y0060060D03*
X0271600Y0060060D03*
X0286600Y0060060D03*
X0286600Y0067540D03*
X0271600Y0067540D03*
X0271600Y0105060D03*
X0271600Y0112540D03*
D15*
X0319238Y0118800D03*
X0323962Y0118800D03*
X0211462Y0113800D03*
X0206738Y0113800D03*
X0178962Y0073800D03*
X0174238Y0073800D03*
X0056462Y0073800D03*
X0051738Y0073800D03*
D16*
X0302800Y0089961D03*
X0302800Y0092520D03*
X0302800Y0095080D03*
X0302800Y0097639D03*
X0320400Y0097639D03*
X0320400Y0095080D03*
X0320400Y0092520D03*
X0320400Y0089961D03*
D17*
X0290340Y0098800D03*
X0282860Y0098800D03*
X0305360Y0106300D03*
X0312840Y0106300D03*
X0210340Y0078800D03*
X0202860Y0078800D03*
X0100340Y0078800D03*
X0092860Y0078800D03*
D18*
X0066600Y0076300D03*
X0056600Y0066300D03*
X0056600Y0086300D03*
X0181600Y0086300D03*
X0191600Y0076300D03*
X0208100Y0070400D03*
X0216200Y0079400D03*
X0181600Y0066300D03*
X0278300Y0070400D03*
X0237800Y0101000D03*
D19*
X0387269Y0110020D02*
X0387269Y0117894D01*
X0412072Y0117894D02*
X0412072Y0110020D01*
X0403017Y0133643D02*
X0395143Y0133643D01*
D20*
X0419986Y0100375D02*
X0424710Y0100375D01*
X0386718Y0090139D02*
X0386718Y0085414D01*
X0396167Y0084627D02*
X0396167Y0079902D01*
X0424513Y0072422D02*
X0424513Y0067698D01*
X0408962Y0057068D02*
X0404238Y0057068D01*
D21*
X0166600Y0053800D03*
X0156600Y0073800D03*
X0141600Y0073800D03*
X0106600Y0063800D03*
X0082401Y0068800D03*
X0196600Y0073800D03*
X0216600Y0073800D03*
X0236600Y0063800D03*
X0271600Y0073800D03*
X0276600Y0078800D03*
X0286600Y0073800D03*
X0296600Y0073800D03*
X0341600Y0078800D03*
X0333100Y0091300D03*
X0326600Y0091300D03*
X0326600Y0113800D03*
X0316600Y0118800D03*
X0316600Y0123800D03*
X0331600Y0128800D03*
X0346600Y0118800D03*
X0291600Y0053800D03*
M02*
